<svg width="26" height="24" viewBox="0 0 26 24" fill="none" xmlns="http://www.w3.org/2000/svg">
<path d="M8.14978 21.2639V21.7639H8.64978H11.4291H11.9291V21.2639V18.0581H14.0172V21.2639V21.7639H14.5172H17.2965H17.7965V21.2639V7.6762V2.73524C17.7965 1.77632 17.0201 1 16.0612 1H9.88502C8.9261 1 8.14978 1.77632 8.14978 2.73524V4.5881V21.2639ZM14.0907 5.32334V4.47048H14.9436V5.32334H14.0907ZM14.0907 8.41145V7.55858H14.9436V8.41145H14.0907ZM14.0907 11.4995V10.6467H14.9436V11.4995H14.0907ZM14.0907 14.5877V13.7348H14.9436V14.5877H14.0907ZM11.0026 5.32334V4.47048H11.8555V5.32334H11.0026ZM11.0026 8.41145V7.55858H11.8555V8.41145H11.0026ZM11.0026 11.4995V10.6467H11.8555V11.4995H11.0026ZM11.0026 14.5877V13.7348H11.8555V14.5877H11.0026Z" stroke="#272D37"/>
<path d="M11.7372 10.7643H11.1196V11.3819H11.7372V10.7643Z" fill="white"/>
<path d="M11.7372 13.8524H11.1196V14.47H11.7372V13.8524Z" fill="white"/>
<path d="M11.7372 4.58807H11.1196V5.20569H11.7372V4.58807Z" fill="white"/>
<path d="M11.7372 7.67624H11.1196V8.29386H11.7372V7.67624Z" fill="white"/>
<path d="M14.8265 7.67624H14.2089V8.29386H14.8265V7.67624Z" fill="white"/>
<path d="M14.8265 4.58807H14.2089V5.20569H14.8265V4.58807Z" fill="white"/>
<path d="M14.8265 10.7643H14.2089V11.3819H14.8265V10.7643Z" fill="white"/>
<path d="M14.8265 13.8524H14.2089V14.47H14.8265V13.8524Z" fill="white"/>
<path d="M7.29686 4.58813V4.08813H6.79686H3.09114C2.13222 4.08813 1.3559 4.86445 1.3559 5.82338V20.0286C1.3559 20.9876 2.13222 21.7639 3.09114 21.7639H6.79686H7.29686V21.2639V4.58813ZM5.06162 16.8229V17.6758H4.20876V16.8229H5.06162ZM5.06162 13.7348V14.5877H4.20876V13.7348H5.06162ZM5.06162 10.6467V11.4996H4.20876V10.6467H5.06162ZM5.06162 7.55862V8.41148H4.20876V7.55862H5.06162Z" stroke="#272D37"/>
<path d="M19.1498 7.17624H18.6498V7.67624V21.2639V21.7639H19.1498H22.8556C23.8145 21.7639 24.5908 20.9876 24.5908 20.0286V8.91148C24.5908 7.95256 23.8145 7.17624 22.8556 7.17624H19.1498ZM21.7379 16.8229V17.6758H20.8851V16.8229H21.7379ZM21.7379 13.7348V14.5877H20.8851V13.7348H21.7379ZM21.7379 10.6467V11.4996H20.8851V10.6467H21.7379Z" stroke="#272D37"/>
<path d="M4.98981 10.7643H4.37219V11.3819H4.98981V10.7643Z" fill="white"/>
<path d="M4.98981 7.67621H4.37219V8.29383H4.98981V7.67621Z" fill="white"/>
<path d="M4.98981 13.8524H4.37219V14.47H4.98981V13.8524Z" fill="white"/>
<path d="M4.98981 16.9405H4.37219V17.5581H4.98981V16.9405Z" fill="white"/>
<path d="M21.619 16.9406H21.0014V17.5582H21.619V16.9406Z" fill="white"/>
<path d="M21.619 13.8524H21.0014V14.47H21.619V13.8524Z" fill="white"/>
<path d="M21.619 10.7643H21.0014V11.3819H21.619V10.7643Z" fill="white"/>
<path d="M13.8995 18.5232H12.0466V22.5H13.8995V18.5232Z" fill="white"/>
</svg>
