<svg width="21" height="21" viewBox="0 0 21 21" fill="none" xmlns="http://www.w3.org/2000/svg">
<g id="calendar">
<g id="vuesax/outline/calendar">
<g id="calendar_2">
<path id="Vector" d="M6.70557 5.56168C6.3639 5.56168 6.08057 5.27834 6.08057 4.93668V2.43668C6.08057 2.09501 6.3639 1.81168 6.70557 1.81168C7.04723 1.81168 7.33057 2.09501 7.33057 2.43668V4.93668C7.33057 5.27834 7.04723 5.56168 6.70557 5.56168Z" fill="#919396"/>
<path id="Vector_2" d="M13.3712 5.56168C13.0295 5.56168 12.7462 5.27834 12.7462 4.93668V2.43668C12.7462 2.09501 13.0295 1.81168 13.3712 1.81168C13.7129 1.81168 13.9962 2.09501 13.9962 2.43668V4.93668C13.9962 5.27834 13.7129 5.56168 13.3712 5.56168Z" fill="#919396"/>
<path id="Vector_3" d="M7.12142 12.8533C7.01309 12.8533 6.90475 12.8283 6.80475 12.7867C6.69642 12.745 6.61309 12.6867 6.52975 12.6117C6.37975 12.4533 6.28809 12.245 6.28809 12.02C6.28809 11.9117 6.31309 11.8033 6.35475 11.7033C6.39642 11.6033 6.45475 11.5117 6.52975 11.4283C6.61309 11.3533 6.69642 11.295 6.80475 11.2533C7.10475 11.1283 7.47975 11.195 7.71309 11.4283C7.86309 11.5867 7.95475 11.8033 7.95475 12.02C7.95475 12.07 7.94642 12.1283 7.93809 12.1867C7.92975 12.2367 7.91308 12.2867 7.88808 12.3367C7.87142 12.3867 7.84642 12.4367 7.81309 12.4867C7.78809 12.5283 7.74642 12.57 7.71309 12.6117C7.55475 12.7617 7.33809 12.8533 7.12142 12.8533Z" fill="#919396"/>
<path id="Vector_4" d="M10.0385 12.8533C9.9302 12.8533 9.82187 12.8283 9.72187 12.7867C9.61353 12.745 9.5302 12.6867 9.44687 12.6117C9.29687 12.4533 9.2052 12.245 9.2052 12.02C9.2052 11.9117 9.2302 11.8033 9.27187 11.7033C9.31354 11.6033 9.37187 11.5117 9.44687 11.4283C9.5302 11.3533 9.61353 11.295 9.72187 11.2533C10.0219 11.12 10.3969 11.195 10.6302 11.4283C10.7802 11.5867 10.8719 11.8033 10.8719 12.02C10.8719 12.07 10.8635 12.1283 10.8552 12.1867C10.8469 12.2367 10.8302 12.2867 10.8052 12.3367C10.7885 12.3867 10.7635 12.4367 10.7302 12.4867C10.7052 12.5283 10.6635 12.57 10.6302 12.6117C10.4719 12.7617 10.2552 12.8533 10.0385 12.8533Z" fill="#919396"/>
<path id="Vector_5" d="M12.9547 12.8533C12.8463 12.8533 12.738 12.8283 12.638 12.7867C12.5297 12.745 12.4463 12.6867 12.363 12.6117C12.3297 12.57 12.2963 12.5283 12.263 12.4867C12.2297 12.4367 12.2047 12.3867 12.188 12.3367C12.163 12.2867 12.1463 12.2367 12.138 12.1867C12.1297 12.1283 12.1213 12.07 12.1213 12.02C12.1213 11.8033 12.213 11.5867 12.363 11.4283C12.4463 11.3533 12.5297 11.295 12.638 11.2533C12.9463 11.12 13.313 11.195 13.5463 11.4283C13.6963 11.5867 13.788 11.8033 13.788 12.02C13.788 12.07 13.7797 12.1283 13.7713 12.1867C13.763 12.2367 13.7463 12.2867 13.7213 12.3367C13.7047 12.3867 13.6797 12.4367 13.6463 12.4867C13.6213 12.5283 13.5797 12.57 13.5463 12.6117C13.388 12.7617 13.1713 12.8533 12.9547 12.8533Z" fill="#919396"/>
<path id="Vector_6" d="M7.12142 15.77C7.01309 15.77 6.90475 15.745 6.80475 15.7033C6.70475 15.6617 6.61309 15.6033 6.52975 15.5283C6.37975 15.37 6.28809 15.1533 6.28809 14.9366C6.28809 14.8283 6.31309 14.72 6.35475 14.62C6.39642 14.5116 6.45475 14.42 6.52975 14.345C6.83809 14.0367 7.40475 14.0367 7.71309 14.345C7.86309 14.5033 7.95475 14.72 7.95475 14.9366C7.95475 15.1533 7.86309 15.37 7.71309 15.5283C7.55475 15.6783 7.33809 15.77 7.12142 15.77Z" fill="#919396"/>
<path id="Vector_7" d="M10.0385 15.77C9.82187 15.77 9.6052 15.6783 9.44687 15.5283C9.29687 15.37 9.2052 15.1533 9.2052 14.9366C9.2052 14.8283 9.2302 14.72 9.27187 14.62C9.31354 14.5116 9.37187 14.42 9.44687 14.345C9.7552 14.0367 10.3219 14.0367 10.6302 14.345C10.7052 14.42 10.7635 14.5116 10.8052 14.62C10.8469 14.72 10.8719 14.8283 10.8719 14.9366C10.8719 15.1533 10.7802 15.37 10.6302 15.5283C10.4719 15.6783 10.2552 15.77 10.0385 15.77Z" fill="#919396"/>
<path id="Vector_8" d="M12.9547 15.77C12.738 15.77 12.5213 15.6784 12.363 15.5284C12.288 15.4534 12.2297 15.3617 12.188 15.2534C12.1463 15.1534 12.1213 15.045 12.1213 14.9367C12.1213 14.8284 12.1463 14.72 12.188 14.62C12.2297 14.5117 12.288 14.42 12.363 14.345C12.5547 14.1534 12.8463 14.0617 13.113 14.12C13.1713 14.1284 13.2213 14.145 13.2713 14.17C13.3213 14.1867 13.3713 14.2117 13.4213 14.245C13.463 14.27 13.5047 14.3117 13.5463 14.345C13.6963 14.5034 13.788 14.72 13.788 14.9367C13.788 15.1534 13.6963 15.37 13.5463 15.5284C13.388 15.6784 13.1713 15.77 12.9547 15.77Z" fill="#919396"/>
<path id="Vector_9" d="M17.1222 8.96994H2.95557C2.6139 8.96994 2.33057 8.68661 2.33057 8.34494C2.33057 8.00327 2.6139 7.71994 2.95557 7.71994H17.1222C17.4639 7.71994 17.7472 8.00327 17.7472 8.34494C17.7472 8.68661 17.4639 8.96994 17.1222 8.96994Z" fill="#919396"/>
<path id="Vector_10" d="M13.3719 19.7283H6.70524C3.66357 19.7283 1.91357 17.9783 1.91357 14.9366V7.85331C1.91357 4.81165 3.66357 3.06165 6.70524 3.06165H13.3719C16.4136 3.06165 18.1636 4.81165 18.1636 7.85331V14.9366C18.1636 17.9783 16.4136 19.7283 13.3719 19.7283ZM6.70524 4.31165C4.32191 4.31165 3.16357 5.46998 3.16357 7.85331V14.9366C3.16357 17.32 4.32191 18.4783 6.70524 18.4783H13.3719C15.7552 18.4783 16.9136 17.32 16.9136 14.9366V7.85331C16.9136 5.46998 15.7552 4.31165 13.3719 4.31165H6.70524Z" fill="#919396"/>
</g>
</g>
</g>
</svg>
