<svg width="14" height="18" viewBox="0 0 14 18" fill="none" xmlns="http://www.w3.org/2000/svg">
<path d="M5.59733 7.33333C5.59733 6.98816 5.31751 6.70833 4.97233 6.70833C4.62715 6.70833 4.34733 6.98816 4.34733 7.33333H5.59733ZM4.34733 14C4.34733 14.3452 4.62715 14.625 4.97233 14.625C5.31751 14.625 5.59733 14.3452 5.59733 14H4.34733ZM8.93066 7.33333C8.93066 6.98816 8.65084 6.70833 8.30566 6.70833C7.96049 6.70833 7.68066 6.98816 7.68066 7.33333H8.93066ZM7.68066 14C7.68066 14.3452 7.96049 14.625 8.30566 14.625C8.65084 14.625 8.93066 14.3452 8.93066 14H7.68066ZM2.54901 16.3183L2.83276 15.7615H2.83276L2.54901 16.3183ZM1.82065 15.59L2.37753 15.3062L2.37753 15.3062L1.82065 15.59ZM11.4573 15.59L10.9005 15.3062V15.3062L11.4573 15.59ZM10.729 16.3183L10.4452 15.7615V15.7615L10.729 16.3183ZM0.805664 4.20833C0.460486 4.20833 0.180664 4.48815 0.180664 4.83333C0.180664 5.17851 0.460486 5.45833 0.805664 5.45833V4.20833ZM12.4723 5.45833C12.8175 5.45833 13.0973 5.17851 13.0973 4.83333C13.0973 4.48815 12.8175 4.20833 12.4723 4.20833V5.45833ZM3.09733 4.83333C3.09733 5.17851 3.37715 5.45833 3.72233 5.45833C4.06751 5.45833 4.34733 5.17851 4.34733 4.83333H3.09733ZM8.93066 4.83333C8.93066 5.17851 9.21049 5.45833 9.55566 5.45833C9.90084 5.45833 10.1807 5.17851 10.1807 4.83333H8.93066ZM4.34733 7.33333V14H5.59733V7.33333H4.34733ZM7.68066 7.33333V14H8.93066V7.33333H7.68066ZM11.014 4.83333V13.8333H12.264V4.83333H11.014ZM8.97233 15.875H4.30566V17.125H8.97233V15.875ZM1.014 4.83333V13.8333H2.264V4.83333H1.014ZM4.30566 15.875C3.82864 15.875 3.50846 15.8745 3.2619 15.8544C3.02263 15.8348 2.90822 15.7999 2.83276 15.7615L2.26527 16.8752C2.54632 17.0184 2.84353 17.0744 3.16011 17.1002C3.46938 17.1255 3.84927 17.125 4.30566 17.125V15.875ZM1.014 13.8333C1.014 14.2897 1.01351 14.6696 1.03878 14.9789C1.06464 15.2955 1.12057 15.5927 1.26377 15.8737L2.37753 15.3062C2.33908 15.2308 2.30418 15.1164 2.28463 14.8771C2.26448 14.6305 2.264 14.3104 2.264 13.8333H1.014ZM2.83276 15.7615C2.63675 15.6616 2.4774 15.5022 2.37753 15.3062L1.26377 15.8737C1.48348 16.3049 1.83407 16.6555 2.26527 16.8752L2.83276 15.7615ZM11.014 13.8333C11.014 14.3104 11.0135 14.6305 10.9934 14.8771C10.9738 15.1164 10.9389 15.2308 10.9005 15.3062L12.0142 15.8737C12.1574 15.5927 12.2133 15.2955 12.2392 14.9789C12.2645 14.6696 12.264 14.2897 12.264 13.8333H11.014ZM8.97233 17.125C9.42873 17.125 9.80861 17.1255 10.1179 17.1002C10.4345 17.0744 10.7317 17.0184 11.0127 16.8752L10.4452 15.7615C10.3698 15.7999 10.2554 15.8348 10.0161 15.8544C9.76953 15.8745 9.44935 15.875 8.97233 15.875V17.125ZM10.9005 15.3062C10.8006 15.5022 10.6412 15.6616 10.4452 15.7615L11.0127 16.8752C11.4439 16.6555 11.7945 16.3049 12.0142 15.8737L10.9005 15.3062ZM0.805664 5.45833H1.639V4.20833H0.805664V5.45833ZM1.639 5.45833H11.639V4.20833H1.639V5.45833ZM11.639 5.45833H12.4723V4.20833H11.639V5.45833ZM4.34733 4.16667C4.34733 3.09062 5.31945 2.125 6.639 2.125V0.875C4.73688 0.875 3.09733 2.29719 3.09733 4.16667H4.34733ZM6.639 2.125C7.95855 2.125 8.93066 3.09062 8.93066 4.16667H10.1807C10.1807 2.29719 8.54111 0.875 6.639 0.875V2.125ZM3.09733 4.16667V4.83333H4.34733V4.16667H3.09733ZM8.93066 4.16667V4.83333H10.1807V4.16667H8.93066Z" fill="#5F6D7E"/>
</svg>
