<svg width="17" height="16" viewBox="0 0 17 16" fill="none" xmlns="http://www.w3.org/2000/svg">
<g id="Branches Icon" clip-path="url(#clip0_215_3485)">
<path id="Vector" d="M9.43401 3.9701L9.43403 3.97014C9.64239 4.33109 9.64239 4.77579 9.43403 5.13674L9.43401 5.13678L8.15223 7.35685C8.15222 7.35686 8.15221 7.35688 8.15221 7.35689C7.9438 7.7179 7.55858 7.94022 7.14185 7.94022H4.57832C4.16151 7.94022 3.77636 7.71785 3.56796 7.35688L2.28619 5.13678C2.28619 5.13678 2.28619 5.13677 2.28619 5.13677C2.07778 4.7758 2.07778 4.33107 2.28619 3.97011L9.43401 3.9701ZM9.43401 3.9701L8.15223 1.75005C8.15222 1.75004 8.15221 1.75003 8.15221 1.75002C7.9438 1.38901 7.55858 1.16669 7.14185 1.16669H4.57832C4.16151 1.16669 3.77636 1.38905 3.56796 1.75002C3.56796 1.75002 3.56796 1.75002 3.56796 1.75002L2.28619 3.9701L9.43401 3.9701Z" stroke="#5F6D7E"/>
<path id="Vector_2" d="M3.62069 8.56814L3.62069 8.56814C3.82909 8.20717 4.21424 7.9848 4.63105 7.9848H7.19458C7.61139 7.9848 7.99653 8.20716 8.20492 8.56813C8.20492 8.56815 8.20493 8.56816 8.20494 8.56817L9.48672 10.7883L9.48674 10.7883C9.69509 11.1493 9.69509 11.594 9.48674 11.9549L9.48671 11.9549L8.20494 14.175C8.20493 14.175 8.20492 14.175 8.20491 14.175C7.99653 14.536 7.61139 14.7583 7.19458 14.7583H4.63105C4.21425 14.7583 3.8291 14.536 3.62069 14.175L3.62069 8.56814ZM3.62069 8.56814L2.33893 10.7883C2.33893 10.7883 2.33892 10.7883 2.33892 10.7883C2.13051 11.1492 2.13052 11.594 2.33893 11.9549C2.33893 11.9549 2.33893 11.9549 2.33893 11.9549L3.62069 14.175L3.62069 8.56814Z" stroke="#5F6D7E"/>
<path id="Vector_3" d="M15.4867 7.45497L15.4867 7.45493L14.2049 5.23486C14.2049 5.23484 14.2049 5.23483 14.2049 5.23482C13.9965 4.87384 13.6114 4.65149 13.1946 4.65149H10.6311C10.2143 4.65149 9.82911 4.87382 9.62071 5.23482C9.6207 5.23483 9.62069 5.23484 9.62068 5.23486L8.33891 7.45493L8.33888 7.45497C8.13053 7.81592 8.13053 8.26062 8.33888 8.62157L8.33891 8.62161L9.62069 10.8416C9.62069 10.8416 9.6207 10.8417 9.62071 10.8417C9.82911 11.2027 10.2143 11.425 10.6311 11.425H13.1946C13.6114 11.425 13.9965 11.2027 14.2049 10.8417C14.2049 10.8417 14.2049 10.8416 14.2049 10.8416L15.4867 8.62161L15.4867 8.62157C15.6951 8.26062 15.6951 7.81592 15.4867 7.45497Z" stroke="#5F6D7E"/>
</g>
<defs>
<clipPath id="clip0_215_3485">
<rect width="16" height="16" fill="white" transform="translate(0.639648)"/>
</clipPath>
</defs>
</svg>
