<svg width="25" height="24" viewBox="0 0 25 24" fill="none" xmlns="http://www.w3.org/2000/svg">
<g id="Branches Icon" clip-path="url(#clip0_374_4665)">
<path id="Vector" d="M14.0987 5.70515L14.0987 5.70525C14.5005 6.40135 14.5005 7.25897 14.0987 7.95507L14.0987 7.95517L12.176 11.2852C11.7741 11.9815 11.0311 12.4103 10.2274 12.4103H6.38212C5.57828 12.4103 4.83549 11.9815 4.43357 11.2853L2.51093 7.95518C2.51093 7.95517 2.51092 7.95516 2.51092 7.95515C2.10899 7.259 2.10899 6.40131 2.51092 5.70516L14.0987 5.70515ZM14.0987 5.70515L12.176 2.37512C12.176 2.37508 12.176 2.37505 12.176 2.37502C11.774 1.67877 11.0311 1.25003 10.2274 1.25003H6.38212C5.57828 1.25003 4.83549 1.67888 4.43357 2.37503C4.43357 2.37503 4.43357 2.37503 4.43357 2.37504L2.51093 5.70514L14.0987 5.70515Z" stroke="#272D37" stroke-width="2.5"/>
<path id="Vector_2" d="M4.51267 12.6022L4.51267 12.6022C4.91459 11.9061 5.65738 11.4772 6.46122 11.4772H10.3065C11.1104 11.4772 11.8531 11.906 12.255 12.6022C12.2551 12.6022 12.2551 12.6023 12.2551 12.6023L14.1777 15.9324L14.1778 15.9325C14.5796 16.6286 14.5796 17.4862 14.1778 18.1823L14.1777 18.1824L12.2551 21.5124C11.8532 22.2086 11.1104 22.6375 10.3065 22.6375H6.46122C5.65738 22.6375 4.9146 22.2087 4.51267 21.5125L4.51267 12.6022ZM4.51267 12.6022L2.59003 15.9324C2.59003 15.9324 2.59002 15.9324 2.59002 15.9324C2.18809 16.6286 2.18809 17.4863 2.59002 18.1824C2.59003 18.1824 2.59003 18.1824 2.59003 18.1824L4.51267 21.5125L4.51267 12.6022Z" stroke="#272D37" stroke-width="2.5"/>
<path id="Vector_3" d="M23.1778 10.9325L23.1778 10.9324L21.2551 7.60232C21.2551 7.60229 21.2551 7.60226 21.2551 7.60223C20.8531 6.90605 20.1104 6.47723 19.3065 6.47723H15.4612C14.6575 6.47723 13.9146 6.90599 13.5127 7.60223C13.5127 7.60226 13.5127 7.60229 13.5126 7.60232L11.59 10.9324L11.5899 10.9325C11.1881 11.6286 11.1881 12.4862 11.5899 13.1823L11.59 13.1824L13.5126 16.5124C13.5127 16.5125 13.5127 16.5125 13.5127 16.5125C13.9146 17.2088 14.6576 17.6375 15.4612 17.6375H19.3065C20.1104 17.6375 20.8531 17.2087 21.255 16.5125C21.2551 16.5125 21.2551 16.5125 21.2551 16.5124L23.1777 13.1824L23.1778 13.1823C23.5796 12.4862 23.5796 11.6286 23.1778 10.9325Z" stroke="#272D37" stroke-width="2.5"/>
</g>
<defs>
<clipPath id="clip0_374_4665">
<rect width="24" height="24" fill="white" transform="translate(0.474121)"/>
</clipPath>
</defs>
</svg>
