<svg width="20" height="21" viewBox="0 0 20 21" fill="none" xmlns="http://www.w3.org/2000/svg">
<g id="document/plus">
<path id="Icon" d="M6.66665 11.1194C6.32147 11.1194 6.04165 11.3993 6.04165 11.7444C6.04165 12.0896 6.32147 12.3694 6.66665 12.3694V11.1194ZM8.33331 12.3694C8.67849 12.3694 8.95831 12.0896 8.95831 11.7444C8.95831 11.3993 8.67849 11.1194 8.33331 11.1194V12.3694ZM6.66665 7.7861C6.32147 7.7861 6.04165 8.06592 6.04165 8.4111C6.04165 8.75627 6.32147 9.0361 6.66665 9.0361V7.7861ZM11.6666 9.0361C12.0118 9.0361 12.2916 8.75627 12.2916 8.4111C12.2916 8.06592 12.0118 7.7861 11.6666 7.7861V9.0361ZM6.66665 4.45276C6.32147 4.45276 6.04165 4.73259 6.04165 5.07776C6.04165 5.42294 6.32147 5.70276 6.66665 5.70276V4.45276ZM11.6666 5.70276C12.0118 5.70276 12.2916 5.42294 12.2916 5.07776C12.2916 4.73259 12.0118 4.45276 11.6666 4.45276V5.70276ZM14.375 8.4111C14.375 8.75627 14.6548 9.0361 15 9.0361C15.3452 9.0361 15.625 8.75627 15.625 8.4111H14.375ZM8.33331 17.3694C8.67849 17.3694 8.95831 17.0896 8.95831 16.7444C8.95831 16.3993 8.67849 16.1194 8.33331 16.1194V17.3694ZM4.23169 16.5568L4.5198 16.0022L4.5198 16.0022L4.23169 16.5568ZM3.52096 15.8461L2.96632 16.1342L2.96632 16.1342L3.52096 15.8461ZM14.1016 1.93207L13.8135 2.48671L13.8135 2.48671L14.1016 1.93207ZM14.8123 2.64281L14.2577 2.93091V2.93092L14.8123 2.64281ZM4.23169 1.93207L3.94358 1.37744L4.23169 1.93207ZM3.52096 2.64281L2.96632 2.3547L3.52096 2.64281ZM11.6667 13.6195C11.3216 13.6195 11.0417 13.8993 11.0417 14.2445C11.0417 14.5896 11.3216 14.8695 11.6667 14.8695V13.6195ZM16.6667 14.8695C17.0119 14.8695 17.2917 14.5896 17.2917 14.2445C17.2917 13.8993 17.0119 13.6195 16.6667 13.6195V14.8695ZM14.7917 11.7444C14.7917 11.3992 14.5118 11.1194 14.1667 11.1194C13.8215 11.1194 13.5417 11.3992 13.5417 11.7444H14.7917ZM13.5417 16.7444C13.5417 17.0895 13.8215 17.3694 14.1667 17.3694C14.5118 17.3694 14.7917 17.0895 14.7917 16.7444H13.5417ZM6.66665 12.3694H8.33331V11.1194H6.66665V12.3694ZM6.66665 9.0361H11.6666V7.7861H6.66665V9.0361ZM6.66665 5.70276H11.6666V4.45276H6.66665V5.70276ZM6.01665 2.36943H12.3166V1.11943H6.01665V2.36943ZM14.375 4.42776V8.4111H15.625V4.42776H14.375ZM8.33331 16.1194H6.01665V17.3694H8.33331V16.1194ZM3.95831 14.0611V4.42776H2.70831V14.0611H3.95831ZM6.01665 16.1194C5.53158 16.1194 5.206 16.1189 4.95542 16.0981C4.71233 16.0779 4.59633 16.0419 4.5198 16.0022L3.94358 17.1114C4.22827 17.2593 4.53018 17.3171 4.85197 17.3438C5.16628 17.3699 5.55256 17.3694 6.01665 17.3694V16.1194ZM2.70831 14.0611C2.70831 14.5252 2.70781 14.9115 2.73391 15.2258C2.76064 15.5476 2.81844 15.8495 2.96632 16.1342L4.07559 15.5579C4.03583 15.4814 3.99981 15.3654 3.97962 15.1223C3.95882 14.8717 3.95831 14.5462 3.95831 14.0611H2.70831ZM4.5198 16.0022C4.32954 15.9033 4.17442 15.7482 4.07559 15.5579L2.96632 16.1342C3.18375 16.5527 3.52502 16.894 3.94358 17.1114L4.5198 16.0022ZM12.3166 2.36943C12.8017 2.36943 13.1273 2.36993 13.3779 2.39074C13.621 2.41093 13.737 2.44695 13.8135 2.48671L14.3897 1.37744C14.105 1.22955 13.8031 1.17175 13.4813 1.14503C13.167 1.11893 12.7807 1.11943 12.3166 1.11943V2.36943ZM15.625 4.42776C15.625 3.96368 15.6255 3.5774 15.5994 3.26309C15.5727 2.9413 15.5149 2.63939 15.367 2.3547L14.2577 2.93092C14.2975 3.00745 14.3335 3.12345 14.3537 3.36654C14.3745 3.61712 14.375 3.9427 14.375 4.42776H15.625ZM13.8135 2.48671C14.0037 2.58554 14.1589 2.74066 14.2577 2.93091L15.367 2.3547C15.1495 1.93614 14.8083 1.59486 14.3897 1.37744L13.8135 2.48671ZM6.01665 1.11943C5.55256 1.11943 5.16628 1.11893 4.85197 1.14503C4.53018 1.17175 4.22828 1.22955 3.94358 1.37744L4.5198 2.48671C4.59633 2.44695 4.71233 2.41093 4.95542 2.39074C5.206 2.36993 5.53158 2.36943 6.01665 2.36943V1.11943ZM3.95831 4.42776C3.95831 3.9427 3.95882 3.61712 3.97962 3.36654C3.99981 3.12345 4.03583 3.00745 4.07559 2.93092L2.96632 2.3547C2.81844 2.63939 2.76064 2.9413 2.73391 3.26309C2.70781 3.5774 2.70831 3.96368 2.70831 4.42776H3.95831ZM3.94358 1.37744C3.52502 1.59486 3.18375 1.93614 2.96632 2.3547L4.07559 2.93092C4.17442 2.74066 4.32954 2.58554 4.5198 2.48671L3.94358 1.37744ZM11.6667 14.8695H16.6667V13.6195H11.6667V14.8695ZM13.5417 11.7444L13.5417 16.7444H14.7917L14.7917 11.7444H13.5417Z" fill="#5F6D7E"/>
</g>
</svg>
