<svg width="25" height="22" viewBox="0 0 25 22" fill="none" xmlns="http://www.w3.org/2000/svg">
<path d="M14.9373 20.178H23.3421" stroke="#056A3A" stroke-width="2.28242" stroke-linecap="round" stroke-linejoin="round"/>
<path d="M19.5339 5.82822L18.4795 5.39149L19.5339 5.82821C19.6908 5.44941 19.7715 5.0434 19.7715 4.63338C19.7715 4.22336 19.6908 3.81736 19.5339 3.43855L18.4869 3.87223L19.5339 3.43855C19.377 3.05974 19.147 2.71555 18.857 2.42562C18.5671 2.13569 18.2229 1.90571 17.8441 1.7488L17.4074 2.80314L17.8441 1.7488C17.4653 1.59189 17.0593 1.51113 16.6493 1.51113C15.8212 1.51113 15.0271 1.84008 14.4415 2.42562L2.76815 14.099C2.62189 14.2452 2.51813 14.4285 2.46797 14.6292L1.5341 18.3646C1.43687 18.7535 1.55082 19.1649 1.83428 19.4484C2.11773 19.7318 2.52912 19.8458 2.91802 19.7486L6.6535 18.8147C6.85416 18.7645 7.03742 18.6608 7.18367 18.5145L18.857 6.84114C19.147 6.55121 19.377 6.20702 19.5339 5.82822Z" stroke="#056A3A" stroke-width="2.28242" stroke-linecap="round" stroke-linejoin="round"/>
</svg>
