<svg width="17" height="16" viewBox="0 0 17 16" fill="none" xmlns="http://www.w3.org/2000/svg">
<g id="edit message/alt" clip-path="url(#clip0_215_3540)">
<path id="Icon" d="M3.33834 1.33909L3.62209 1.89597L3.62209 1.89597L3.33834 1.33909ZM1.97874 2.6987L1.42186 2.41495L1.42186 2.41495L1.97874 2.6987ZM13.941 14.6609L14.2247 15.2178L14.2247 15.2178L13.941 14.6609ZM15.3006 13.3013L14.7437 13.0176L15.3006 13.3013ZM3.33834 14.6609L3.62209 14.104H3.62209L3.33834 14.6609ZM1.97874 13.3013L2.53562 13.0176L1.97874 13.3013ZM16.2646 8C16.2646 7.65482 15.9848 7.375 15.6396 7.375C15.2945 7.375 15.0146 7.65482 15.0146 8H16.2646ZM8.63965 1.625C8.98483 1.625 9.26465 1.34518 9.26465 1C9.26465 0.654822 8.98483 0.375 8.63965 0.375V1.625ZM8.8366 6.83068L9.42953 7.02832V7.02832L8.8366 6.83068ZM9.19655 5.75083L8.60362 5.55319L8.60362 5.55319L9.19655 5.75083ZM9.56796 5.14987L10.0099 5.59182L10.0099 5.59182L9.56796 5.14987ZM13.155 1.56289L12.713 1.12094L12.713 1.12094L13.155 1.56289ZM15.0768 3.4847L15.5187 3.92664L15.0768 3.4847ZM11.4898 7.07169L11.0478 6.62975V6.62975L11.4898 7.07169ZM10.8888 7.4431L11.0865 8.03603V8.03603L10.8888 7.4431ZM9.80897 7.80305L10.0066 8.39598L10.0066 8.39598L9.80897 7.80305ZM11.2928 7.25557L11.6692 7.75452V7.75452L11.2928 7.25557ZM11.1414 7.34912L10.8635 6.78933H10.8634L11.1414 7.34912ZM15.0768 1.56289L14.6348 2.00483L14.6348 2.00483L15.0768 1.56289ZM15.5397 2.09714L16.0997 1.81963V1.81963L15.5397 2.09714ZM15.5397 2.95045L16.0997 3.22796V3.22796L15.5397 2.95045ZM13.6892 1.09992L13.9667 1.65993V1.65993L13.6892 1.09992ZM14.5425 1.09992L14.265 1.65993L14.265 1.65993L14.5425 1.09992ZM9.29052 5.49826L9.85032 5.7762L9.85032 5.7762L9.29052 5.49826ZM9.38408 5.34688L8.88513 4.97048L8.88513 4.97048L9.38408 5.34688ZM8.65754 7.69094L9.24623 7.48102L8.65754 7.69094ZM8.9487 7.98211L8.73878 8.5708H8.73878L8.9487 7.98211ZM6.61743 15.625H10.6619V14.375H6.61743V15.625ZM1.01465 5.97778V10.0222H2.26465V5.97778H1.01465ZM6.61743 0.375C5.75655 0.375 5.0733 0.374514 4.52316 0.419462C3.96572 0.465006 3.49014 0.560291 3.0546 0.782212L3.62209 1.89597C3.85205 1.7788 4.14482 1.70454 4.62495 1.66531C5.11238 1.62549 5.73592 1.625 6.61743 1.625V0.375ZM2.26465 5.97778C2.26465 5.09627 2.26513 4.47273 2.30496 3.9853C2.34419 3.50517 2.41845 3.2124 2.53562 2.98244L1.42186 2.41495C1.19994 2.8505 1.10465 3.32608 1.05911 3.88351C1.01416 4.43365 1.01465 5.1169 1.01465 5.97778H2.26465ZM3.0546 0.782212C2.35161 1.14041 1.78005 1.71196 1.42186 2.41495L2.53562 2.98244C2.77397 2.51465 3.1543 2.13432 3.62209 1.89597L3.0546 0.782212ZM10.6619 15.625C11.5228 15.625 12.206 15.6255 12.7561 15.5805C13.3136 15.535 13.7892 15.4397 14.2247 15.2178L13.6572 14.104C13.4272 14.2212 13.1345 14.2955 12.6543 14.3347C12.1669 14.3745 11.5434 14.375 10.6619 14.375V15.625ZM15.0146 10.0222C15.0146 10.9037 15.0142 11.5273 14.9743 12.0147C14.9351 12.4948 14.8608 12.7876 14.7437 13.0176L15.8574 13.585C16.0794 13.1495 16.1746 12.6739 16.2202 12.1165C16.2651 11.5664 16.2646 10.8831 16.2646 10.0222H15.0146ZM14.2247 15.2178C14.9277 14.8596 15.4992 14.288 15.8574 13.585L14.7437 13.0176C14.5053 13.4854 14.125 13.8657 13.6572 14.104L14.2247 15.2178ZM6.61743 14.375C5.73592 14.375 5.11238 14.3745 4.62495 14.3347C4.14482 14.2955 3.85205 14.2212 3.62209 14.104L3.0546 15.2178C3.49014 15.4397 3.96572 15.535 4.52316 15.5805C5.0733 15.6255 5.75655 15.625 6.61743 15.625V14.375ZM1.01465 10.0222C1.01465 10.8831 1.01416 11.5663 1.05911 12.1165C1.10465 12.6739 1.19994 13.1495 1.42186 13.585L2.53562 13.0176C2.41845 12.7876 2.34419 12.4948 2.30496 12.0147C2.26513 11.5273 2.26465 10.9037 2.26465 10.0222H1.01465ZM3.62209 14.104C3.1543 13.8657 2.77397 13.4854 2.53562 13.0176L1.42186 13.585C1.78005 14.288 2.35161 14.8596 3.0546 15.2178L3.62209 14.104ZM16.2646 10.0222V8H15.0146V10.0222H16.2646ZM6.61743 1.625H8.63965V0.375H6.61743V1.625ZM9.42953 7.02832L9.78948 5.94847L8.60362 5.55319L8.24367 6.63304L9.42953 7.02832ZM10.0099 5.59182L13.5969 2.00483L12.713 1.12094L9.12602 4.70793L10.0099 5.59182ZM14.6348 3.04276L11.0478 6.62975L11.9317 7.51363L15.5187 3.92664L14.6348 3.04276ZM10.6912 6.85017L9.61133 7.21012L10.0066 8.39598L11.0865 8.03603L10.6912 6.85017ZM11.0478 6.62975C10.9403 6.73725 10.9271 6.74853 10.9164 6.75662L11.6692 7.75452C11.7653 7.68199 11.8478 7.59755 11.9317 7.51363L11.0478 6.62975ZM11.0865 8.03603C11.199 7.9985 11.3115 7.96248 11.4193 7.90892L10.8634 6.78933C10.8514 6.7953 10.8354 6.80209 10.6912 6.85017L11.0865 8.03603ZM10.9164 6.75662C10.8998 6.76913 10.8821 6.78008 10.8635 6.78933L11.4193 7.90892C11.5072 7.86529 11.5908 7.8136 11.6692 7.75452L10.9164 6.75662ZM14.6348 2.00483C14.9325 2.30248 14.9667 2.34842 14.9797 2.37465L16.0997 1.81963C15.9727 1.56326 15.745 1.34723 15.5187 1.12094L14.6348 2.00483ZM15.5187 3.92664C15.745 3.70036 15.9727 3.48433 16.0997 3.22796L14.9797 2.67294C14.9667 2.69917 14.9325 2.74511 14.6348 3.04276L15.5187 3.92664ZM14.9797 2.37464C15.0263 2.46862 15.0263 2.57896 14.9797 2.67294L16.0997 3.22796C16.3196 2.78426 16.3196 2.26333 16.0997 1.81963L14.9797 2.37464ZM13.5969 2.00483C13.8945 1.70718 13.9405 1.67292 13.9667 1.65993L13.4117 0.539904C13.1553 0.666945 12.9393 0.894665 12.713 1.12094L13.5969 2.00483ZM15.5187 1.12094C15.2924 0.894663 15.0764 0.666946 14.82 0.539904L14.265 1.65993C14.2912 1.67292 14.3372 1.70718 14.6348 2.00483L15.5187 1.12094ZM13.9667 1.65993C14.0607 1.61336 14.171 1.61336 14.265 1.65993L14.82 0.539904C14.3763 0.320032 13.8554 0.320032 13.4117 0.539904L13.9667 1.65993ZM9.78948 5.94847C9.83755 5.80424 9.84434 5.78824 9.85032 5.7762L8.73072 5.22032C8.67717 5.32818 8.64115 5.44061 8.60362 5.55319L9.78948 5.94847ZM9.12602 4.70793C9.0421 4.79185 8.95766 4.87434 8.88513 4.97048L9.88303 5.72328C9.89112 5.71255 9.9024 5.69932 10.0099 5.59182L9.12602 4.70793ZM9.85032 5.7762C9.85956 5.75759 9.87051 5.73987 9.88303 5.72328L8.88513 4.97048C8.82605 5.0488 8.77435 5.13244 8.73072 5.22032L9.85032 5.7762ZM8.24367 6.63304C8.16937 6.85594 8.09933 7.06409 8.05909 7.23535C8.02102 7.39734 7.97761 7.64503 8.06885 7.90087L9.24623 7.48102C9.2818 7.58077 9.24968 7.63305 9.27594 7.52129C9.30002 7.4188 9.34735 7.27486 9.42953 7.02832L8.24367 6.63304ZM9.61133 7.21012C9.36479 7.2923 9.22085 7.33962 9.11836 7.36371C9.00659 7.38997 9.05888 7.35785 9.15863 7.39342L8.73878 8.5708C8.99462 8.66203 9.24232 8.61862 9.4043 8.58056C9.57556 8.54032 9.78371 8.47028 10.0066 8.39598L9.61133 7.21012ZM8.06885 7.90087C8.1803 8.2134 8.42624 8.45935 8.73878 8.5708L9.15863 7.39342C9.1995 7.40799 9.23166 7.44015 9.24623 7.48102L8.06885 7.90087Z" fill="#5F6D7E"/>
</g>
<defs>
<clipPath id="clip0_215_3540">
<rect width="16" height="16" fill="white" transform="translate(0.639648)"/>
</clipPath>
</defs>
</svg>
