<svg width="17" height="16" viewBox="0 0 17 16" fill="none" xmlns="http://www.w3.org/2000/svg">
<g id="Emp Icon">
<g id="User / Users">
<path id="Vector" d="M15.8395 13.9999C15.8395 12.6066 14.5038 11.4214 12.6395 10.982M11.0395 14C11.0395 12.2327 8.89041 10.8 6.23945 10.8C3.58849 10.8 1.43945 12.2327 1.43945 14M11.0395 8.4C12.8067 8.4 14.2395 6.96728 14.2395 5.2C14.2395 3.43269 12.8067 2 11.0395 2M6.23945 8.4C4.47214 8.4 3.03945 6.96728 3.03945 5.2C3.03945 3.43269 4.47214 2 6.23945 2C8.00673 2 9.43945 3.43269 9.43945 5.2C9.43945 6.96728 8.00673 8.4 6.23945 8.4Z" stroke="#5F6D7E" stroke-linecap="round" stroke-linejoin="round"/>
</g>
</g>
</svg>
