<svg width="24" height="24" viewBox="0 0 24 24" fill="none" xmlns="http://www.w3.org/2000/svg">
<path d="M22.7997 20.9999C22.7997 18.91 20.7962 17.132 17.9997 16.473M15.5997 21C15.5997 18.3491 12.3761 16.2 8.39971 16.2C4.42325 16.2 1.19971 18.3491 1.19971 21M15.5997 12.6C18.2506 12.6 20.3997 10.4509 20.3997 7.8C20.3997 5.14903 18.2506 3 15.5997 3M8.39971 12.6C5.74874 12.6 3.59971 10.4509 3.59971 7.8C3.59971 5.14903 5.74874 3 8.39971 3C11.0506 3 13.1997 5.14903 13.1997 7.8C13.1997 10.4509 11.0506 12.6 8.39971 12.6Z" stroke="#272D37" stroke-width="2" stroke-linecap="round" stroke-linejoin="round"/>
</svg>
