<svg width="16" height="17" viewBox="0 0 16 17" fill="none" xmlns="http://www.w3.org/2000/svg">
<g id="Facebook" clip-path="url(#clip0_93_6457)">
<path id="Vector" d="M8 0.600586C3.582 0.600586 0 4.18259 0 8.60059C0 13.0186 3.582 16.6006 8 16.6006C12.418 16.6006 16 13.0186 16 8.60059C16 4.18259 12.418 0.600586 8 0.600586ZM10 5.93392H9.1C8.74133 5.93392 8.66667 6.08125 8.66667 6.45259V7.26725H10L9.86067 8.60059H8.66667V13.2673H6.66667V8.60059H5.33333V7.26725H6.66667V5.72859C6.66667 4.54925 7.28733 3.93392 8.686 3.93392H10V5.93392Z" fill="#5F6D7E" fill-opacity="0.5"/>
</g>
<defs>
<clipPath id="clip0_93_6457">
<rect width="16" height="16" fill="white" transform="translate(0 0.600586)"/>
</clipPath>
</defs>
</svg>
