<svg width="166" height="33" viewBox="0 0 166 33" fill="none" xmlns="http://www.w3.org/2000/svg">
<g clip-path="url(#clip0_364_5066)">
<path d="M14.5504 16.2378C16.2032 14.7024 17.5535 14.9417 18.7141 16.2378L18.7592 26.1819C18.7638 26.9496 18.5876 27.7128 18.2083 28.3586C17.5716 29.4514 16.6955 30.3275 15.5665 30.9733C15.002 31.2939 14.3788 31.4655 13.7465 31.4655C11.5428 31.4655 5.49139 31.4655 4.11854 31.4655C3.93339 31.4655 3.74824 31.4339 3.57211 31.3572C1.87863 30.6346 0.754163 29.3927 0.0496754 27.776C0.0180638 27.6992 0 27.6134 0 27.5322V5.24596C0 4.84404 0.0316116 4.44212 0.126447 4.05375C0.47869 2.5951 1.3322 1.4616 2.51538 0.540343C2.87666 0.255838 3.31019 0.111328 3.75275 0.111328H14.5504C15.8781 0.111328 17.3999 0.720981 18.1315 2.21576C18.2489 2.4551 18.3076 2.72155 18.3122 2.9925L18.3889 10.1954C17.269 11.2973 15.6839 11.3651 14.1936 10.2496L14.1485 5.78336C14.1485 5.66143 14.1304 5.53498 14.0943 5.41757C13.864 4.68598 13.5162 4.16665 12.9788 3.98149C12.9246 3.96343 12.8659 3.9544 12.8072 3.9544L5.55913 3.93633C5.40107 3.93633 5.24301 3.99053 5.12108 4.09891C4.45272 4.69501 4.04177 5.50788 3.88823 6.54655C3.86113 6.74074 3.8521 6.94395 3.8521 7.14266L3.87017 26.2135C3.87017 26.2858 3.88371 26.3625 3.91533 26.4257C4.18628 27.0173 4.52498 27.4147 4.93141 27.618C4.99012 27.6496 5.05786 27.6586 5.1256 27.6586L13.6562 27.6405C14.1169 27.4734 14.3968 27.2025 14.5007 26.8277L14.5504 16.2378Z" fill="#056A3A"/>
<path d="M9.37955 20.1302C11.108 20.1302 12.5091 18.729 12.5091 17.0006C12.5091 15.2722 11.108 13.8711 9.37955 13.8711C7.65115 13.8711 6.25 15.2722 6.25 17.0006C6.25 18.729 7.65115 20.1302 9.37955 20.1302Z" fill="#93B722"/>
<path d="M23.7269 31.8129H24.8649C25.452 31.8129 26.0074 31.4652 26.1293 30.9458C26.1429 30.8961 26.1474 30.8465 26.1564 30.7923L26.1429 16.9645C26.1429 16.9328 26.1384 16.8967 26.1384 16.8651C26.1248 16.1787 26.739 15.6187 27.4932 15.6187H32.1175C32.8717 15.6187 33.5129 15.1129 33.6168 14.4355L33.6213 14.4039C33.7748 13.4014 32.9891 12.584 31.8736 12.584H25.9894C25.8719 12.584 25.75 12.593 25.6371 12.6111C24.1062 12.8595 23.0901 13.6543 22.5617 14.9729C22.4759 15.1807 22.4443 15.4019 22.4443 15.6232V30.571C22.4443 30.7065 22.4624 30.8465 22.5211 30.9729C22.5843 31.1174 22.6566 31.2484 22.7469 31.3703C22.9546 31.6548 23.3385 31.8129 23.7269 31.8129Z" fill="#056A3A"/>
<path d="M41.4653 20.6585C41.1447 20.6224 40.8556 20.6675 40.7653 21.0017V22.6681C40.7879 22.9842 40.955 23.2416 41.4653 23.359H50.3888H50.4069C51.0075 23.3455 51.4862 22.8803 51.4862 22.3158V15.8084C51.4862 15.4335 51.3778 15.0587 51.1565 14.7471C50.2804 13.5143 49.0069 12.8098 47.3586 12.602C47.2457 12.5885 47.1328 12.584 47.0199 12.584H39.3112C39.0989 12.584 38.8867 12.602 38.6835 12.6562C37.0532 13.0717 35.9197 14.002 35.2739 15.4426C35.1475 15.7226 35.0843 16.0251 35.0843 16.3277C35.0797 17.976 35.0662 24.1764 35.0572 26.8453C35.0526 28.1459 35.5765 29.424 36.5881 30.3046C36.9132 30.5845 37.27 30.8239 37.6629 31.0181C38.2951 31.3252 39.0086 31.4561 39.7221 31.4561L47.5392 31.3387C47.6205 31.3387 47.7063 31.3297 47.7876 31.3116C49.8875 30.8691 50.8585 29.8394 51.1068 28.1098L51.1159 26.4254C51.1204 25.5944 50.5604 24.7228 49.6482 24.7003C49.5804 24.7003 49.5127 24.6912 49.445 24.6822C48.9437 24.6235 48.2799 24.8809 48.0044 25.7705C47.9366 25.9873 47.905 26.2131 47.896 26.4389V26.457C47.8147 27.0892 47.7334 27.5589 47.4038 28.015C47.2367 28.2453 47.047 28.4395 46.8257 28.5975C46.6406 28.7285 46.4148 28.7917 46.1845 28.7917L40.255 28.7646C40.0879 28.7646 39.9163 28.7285 39.7718 28.6517C39.3202 28.4033 39.0041 28.0917 38.7783 27.735C38.6654 27.5543 38.6112 27.3466 38.6112 27.1389L38.6383 17.5741C38.6383 17.3393 38.6744 17.109 38.7512 16.8832C38.9138 16.409 39.1667 15.998 39.5234 15.6639C39.7808 15.4245 40.1241 15.289 40.4853 15.289C41.6775 15.2845 44.8477 15.28 45.9993 15.2755C46.3244 15.2755 46.6406 15.3794 46.898 15.5645C47.485 15.989 47.8599 16.549 47.9005 17.3257V20.085C47.9005 20.3921 47.6341 20.6449 47.3089 20.6449L41.4653 20.6585Z" fill="#056A3A"/>
<path d="M67.1928 27.3021C67.1973 26.9498 67.238 26.6021 67.3192 26.2589C67.4457 25.7215 67.5766 25.4234 67.9334 25.0486L67.9379 25.0441C68.5431 24.6106 69.4011 24.6467 69.9701 25.0441H69.9746C70.0017 25.0667 70.0288 25.0983 70.0559 25.1254C70.2727 25.3783 70.3675 25.7079 70.3675 26.0376V28.2369C70.3675 28.5891 70.2772 28.9414 70.083 29.2394C69.4869 30.1652 68.5837 30.8426 67.3779 31.2716C67.0618 31.3845 66.7277 31.4387 66.3935 31.4387H58.6938C58.5131 31.4387 58.328 31.4161 58.1609 31.3574C56.7564 30.8832 55.7313 29.8987 55.0494 28.4446C54.9365 28.2053 54.8914 27.9433 54.8914 27.6814L54.8823 16.3419C54.8823 16.0348 54.9365 15.7232 55.0494 15.4342C55.632 13.9439 56.8106 13.0317 58.5177 12.6252C58.6577 12.5936 58.7976 12.5801 58.9376 12.5801C60.1569 12.5801 66.258 12.5801 67.3283 12.5801C67.4367 12.5801 67.545 12.5891 67.6489 12.6117C68.6198 12.8104 69.4056 13.3252 70.0243 14.1155C70.2501 14.4045 70.363 14.7613 70.363 15.1226V22.4429C70.363 22.7184 70.2365 22.9803 70.0198 23.1609C69.8572 23.2964 69.6359 23.3551 69.4192 23.3551L60.9292 23.3642C60.8885 23.3642 60.8434 23.3551 60.8027 23.3416C60.5273 23.2332 60.3331 23.0435 60.2157 22.7816C60.1795 22.7048 60.166 22.619 60.166 22.5332V21.3455C60.2247 20.9707 60.4731 20.7539 60.8524 20.6456H66.7683C67.0031 20.6456 67.1883 20.4649 67.1883 20.2391L67.1792 16.8341C67.1792 16.6986 67.1612 16.5586 67.1115 16.4322C66.9444 16.0032 66.678 15.66 66.3032 15.4025C66.1903 15.3258 66.0457 15.2896 65.9058 15.2896L59.3441 15.258C59.1725 15.258 59.0054 15.3258 58.8835 15.4432C58.6802 15.6374 58.5402 15.8632 58.4499 16.1115C58.4093 16.2199 58.4003 16.3373 58.4003 16.4548L58.4093 27.6046C58.4093 27.6769 58.4228 27.7537 58.459 27.8169C58.6622 28.2053 59.0505 28.5033 59.6241 28.6975C59.7505 28.7427 59.8815 28.7562 60.0124 28.7562L65.3277 28.7652C65.3729 28.7652 65.4225 28.7607 65.4632 28.7517C66.1677 28.6252 66.678 28.3814 66.9896 28.0156C67.1115 27.8756 67.1702 27.695 67.1747 27.5098L67.1928 27.3021Z" fill="#056A3A"/>
<path d="M75.123 31.9578C76.0532 32.179 76.9655 32.1474 77.828 31.9487C78.2209 31.8584 78.5054 31.5152 78.5054 31.1133L78.4422 17.308C78.686 16.5042 79.4267 15.9487 80.2666 15.9487H84.7284C85.4961 15.9487 86.1464 16.5223 86.2367 17.2855V30.9868C86.2367 31.461 86.5754 31.8674 87.0405 31.9623C87.867 32.1294 88.6889 32.161 89.5017 31.9939C89.9714 31.8991 90.3101 31.4836 90.3101 31.0049V15.9758C90.3101 15.47 90.2107 14.9643 89.9804 14.5172C89.8765 14.3185 89.7591 14.1288 89.6282 13.9527C88.9734 13.0721 87.9031 12.5889 86.8012 12.5889H78.397C77.9815 12.5889 77.5616 12.6385 77.1642 12.765C76.6313 12.9411 76.1571 13.1805 75.7552 13.4921C74.9197 14.1424 74.4727 15.1765 74.4727 16.2378V31.1178C74.4817 31.5107 74.7436 31.8629 75.123 31.9578Z" fill="#056A3A"/>
<path d="M93.6835 31.9578C94.6138 32.179 95.526 32.1474 96.3886 31.9487C96.7814 31.8584 97.0659 31.5152 97.0659 31.1133L97.0027 17.308C97.2466 16.5042 97.9872 15.9487 98.8272 15.9487H103.289C104.057 15.9487 104.707 16.5223 104.797 17.2855V30.9868C104.797 31.461 105.136 31.8674 105.601 31.9623C106.428 32.1294 107.249 32.161 108.062 31.9939C108.532 31.8991 108.871 31.4836 108.871 31.0049V15.9758C108.871 15.47 108.771 14.9643 108.541 14.5172C108.437 14.3185 108.32 14.1288 108.189 13.9527C107.534 13.0721 106.464 12.5889 105.362 12.5889H96.9576C96.5421 12.5889 96.1221 12.6385 95.7247 12.765C95.1918 12.9411 94.7177 13.1805 94.3157 13.4921C93.4803 14.1424 93.0332 15.1765 93.0332 16.2378V31.1178C93.0422 31.5107 93.3042 31.8629 93.6835 31.9578Z" fill="#056A3A"/>
<path d="M128.352 14.7789C127.765 13.9525 127.142 13.2796 126.46 12.81C126.099 12.5616 125.679 12.4171 125.245 12.3719C123.683 12.2094 119.826 12.0197 117.663 12.3268C117.27 12.381 116.895 12.521 116.552 12.7197C116.457 12.7739 116.367 12.8326 116.276 12.8913C114.578 13.9751 113.585 15.8808 113.585 17.8995V27.4055C113.585 27.8345 113.653 28.2681 113.806 28.67C114.24 29.799 115.111 30.6435 116.371 31.2351C116.94 31.5015 117.559 31.655 118.191 31.6866C120.305 31.8041 122.567 31.795 124.965 31.6776C125.634 31.646 126.288 31.4473 126.853 31.086C127.521 30.6525 128.054 30.088 128.447 29.3925C128.849 28.679 129.039 27.8616 129.039 27.0397V16.9692C129.039 16.1834 128.804 15.4157 128.352 14.7789ZM125.358 27.3739C125.254 27.8662 124.888 28.2545 124.152 28.4939C122.35 28.8687 120.44 28.8868 118.408 28.4939C117.676 28.2365 117.22 27.8029 117.261 27.0578V17.5111C117.261 16.7072 117.681 15.9441 118.394 15.5737C118.399 15.5692 118.403 15.5692 118.408 15.5647C119.808 15.3796 121.529 15.3796 123.506 15.5241C123.949 15.5557 124.383 15.7183 124.721 15.9982C125.155 16.3595 125.385 16.8066 125.358 17.3711V27.3739Z" fill="#056A3A"/>
<path d="M133.157 12.0062C133.446 12.0965 133.672 12.3223 133.762 12.5978L138.843 27.7443C138.901 27.9159 139.064 28.0288 139.254 28.0288C139.421 28.0288 139.574 27.9249 139.624 27.7668L144.646 12.6249C144.745 12.3223 145.02 12.101 145.35 12.0559C146.131 11.9475 146.958 12.0784 147.617 12.6204C147.875 12.8326 147.974 13.1668 147.87 13.4784L141.774 31.4383C141.719 31.5964 141.566 31.7048 141.394 31.7048H137.655C137.42 31.7048 137.212 31.5602 137.131 31.348L130.574 13.4784C130.493 13.2571 130.497 13.0132 130.601 12.801C131.03 11.943 131.875 11.6043 133.157 12.0062Z" fill="#056A3A"/>
<path d="M150.584 18.8521C151.257 18.9515 151.957 18.8973 152.68 18.7167C153.176 18.5947 153.533 18.1476 153.533 17.6373V16.129C153.565 15.4561 153.8 14.991 154.265 14.7562H160.122C160.723 14.9639 161.106 15.3749 161.256 16.0071V19.674C161.256 19.954 161.03 20.1798 160.75 20.1798H153.086C152.933 20.1798 152.779 20.1979 152.635 20.243C150.928 20.7669 149.722 21.8733 149.004 23.5623C148.85 23.9235 148.773 24.3164 148.773 24.7138V27.5318C148.773 27.8344 148.819 28.1324 148.904 28.4214C149.491 30.4084 150.629 31.4968 152.467 31.4426H158.727C159.079 31.4426 159.395 31.2258 159.53 30.8962C159.761 30.3452 159.765 29.7898 159.553 29.2298C159.413 28.855 159.043 28.6111 158.641 28.6201L153.628 28.7014C153.009 28.3492 152.711 27.9472 152.585 27.5092L152.467 25.1564C152.499 24.3571 152.788 23.7113 153.362 23.2371C153.475 23.1423 153.619 23.1016 153.764 23.1016H160.854C161.075 23.1016 161.256 23.2823 161.256 23.5036V29.9975C161.256 30.5981 161.612 31.1536 162.168 31.3794C162.886 31.6684 163.599 31.6684 164.317 31.3794C164.846 31.1671 165.193 30.6433 165.193 30.0743V16.0522C165.193 15.3387 164.995 14.6297 164.57 14.0517C164.019 13.2975 163.315 12.6788 162.443 12.2137C161.983 11.9698 161.468 11.8389 160.948 11.8389H154.373C153.122 11.8389 151.889 12.2227 150.909 13.004C150.526 13.3111 150.173 13.6723 149.848 14.0743C149.546 14.4536 149.397 14.9278 149.388 15.411L149.356 17.398C149.338 18.1251 149.871 18.7438 150.584 18.8521Z" fill="#056A3A"/>
</g>
<defs>
<clipPath id="clip0_364_5066">
<rect width="165.189" height="32" fill="white" transform="translate(0 0.111328)"/>
</clipPath>
</defs>
</svg>
