<svg width="96" height="82" viewBox="0 0 96 82" fill="none" xmlns="http://www.w3.org/2000/svg">
<path fill-rule="evenodd" clip-rule="evenodd" d="M0.807617 14.1364C0.807617 6.68978 7.83702 0.653076 16.5082 0.653076H79.3104C87.9819 0.653076 95.011 6.68978 95.011 14.1364V63.5707V63.5797V68.0696C95.011 75.5164 87.9819 81.5529 79.3104 81.5529H16.5082C7.83702 81.5529 0.807617 75.5164 0.807617 68.0696V50.0919V14.1364ZM84.544 14.1364V52.7247L67.3105 37.925C65.2668 36.1699 61.9529 36.1699 59.9093 37.925L53.1428 43.7358L33.2927 26.6888C31.2488 24.9337 27.9352 24.9337 25.8913 26.6888L11.2747 39.2414V14.1364C11.2747 11.6542 13.6178 9.64195 16.5082 9.64195H79.3104C82.2009 9.64195 84.544 11.6542 84.544 14.1364ZM11.2747 68.0696V51.9535L29.592 36.2229L49.4422 53.2699C51.4859 55.025 54.7998 55.025 56.8435 53.2699L63.6099 47.459L84.544 65.4368V68.0696C84.544 70.5519 82.2009 72.564 79.3104 72.564H16.5082C13.6178 72.564 11.2747 70.5519 11.2747 68.0696ZM60.9931 32.1141C65.3286 32.1141 68.8434 29.0958 68.8434 25.3725C68.8434 21.6491 65.3286 18.6308 60.9931 18.6308C56.6577 18.6308 53.1428 21.6491 53.1428 25.3725C53.1428 29.0958 56.6577 32.1141 60.9931 32.1141Z" fill="#5F6D7E" fill-opacity="0.5"/>
</svg>
