<svg width="16" height="17" viewBox="0 0 16 17" fill="none" xmlns="http://www.w3.org/2000/svg">
<g id="Frame" clip-path="url(#clip0_93_6459)">
<path id="Vector" d="M9.886 4.80192C9.394 4.77925 9.246 4.77525 8 4.77525C6.754 4.77525 6.60667 4.77992 6.11467 4.80192C4.84867 4.85992 4.25933 5.45925 4.20133 6.71525C4.17933 7.20725 4.174 7.35459 4.174 8.60059C4.174 9.84659 4.17933 9.99392 4.20133 10.4866C4.25933 11.7393 4.846 12.3419 6.11467 12.3999C6.606 12.4219 6.754 12.4273 8 12.4273C9.24667 12.4273 9.394 12.4226 9.886 12.3999C11.152 12.3426 11.7407 11.7413 11.7993 10.4866C11.8213 9.99459 11.826 9.84659 11.826 8.60059C11.826 7.35459 11.8213 7.20725 11.7993 6.71525C11.7407 5.45992 11.1507 4.85992 9.886 4.80192V4.80192ZM8 10.9973C6.67667 10.9973 5.60333 9.92459 5.60333 8.60059C5.60333 7.27725 6.67667 6.20459 8 6.20459C9.32333 6.20459 10.3967 7.27725 10.3967 8.60059C10.3967 9.92392 9.32333 10.9973 8 10.9973ZM10.4913 6.66992C10.182 6.66992 9.93133 6.41925 9.93133 6.10992C9.93133 5.80059 10.182 5.54992 10.4913 5.54992C10.8007 5.54992 11.0513 5.80059 11.0513 6.10992C11.0513 6.41859 10.8007 6.66992 10.4913 6.66992V6.66992ZM9.55533 8.60059C9.55533 9.45992 8.85867 10.1559 8 10.1559C7.14133 10.1559 6.44467 9.45992 6.44467 8.60059C6.44467 7.74125 7.14133 7.04525 8 7.04525C8.85867 7.04525 9.55533 7.74125 9.55533 8.60059ZM8 0.600586C3.582 0.600586 0 4.18259 0 8.60059C0 13.0186 3.582 16.6006 8 16.6006C12.418 16.6006 16 13.0186 16 8.60059C16 4.18259 12.418 0.600586 8 0.600586ZM12.6387 10.5246C12.562 12.2213 11.6173 13.1613 9.92467 13.2393C9.42667 13.2619 9.26733 13.2673 8 13.2673C6.73267 13.2673 6.574 13.2619 6.076 13.2393C4.38 13.1613 3.43933 12.2199 3.36133 10.5246C3.33867 10.0273 3.33333 9.86792 3.33333 8.60059C3.33333 7.33325 3.33867 7.17459 3.36133 6.67659C3.43933 4.98059 4.38067 4.03992 6.076 3.96259C6.574 3.93925 6.73267 3.93392 8 3.93392C9.26733 3.93392 9.42667 3.93925 9.92467 3.96259C11.6213 4.04059 12.5627 4.98392 12.6387 6.67659C12.6613 7.17459 12.6667 7.33325 12.6667 8.60059C12.6667 9.86792 12.6613 10.0273 12.6387 10.5246Z" fill="#5F6D7E" fill-opacity="0.5"/>
</g>
<defs>
<clipPath id="clip0_93_6459">
<rect width="16" height="16" fill="white" transform="translate(0 0.600586)"/>
</clipPath>
</defs>
</svg>
