<svg width="28" height="25" viewBox="0 0 28 25" fill="none" xmlns="http://www.w3.org/2000/svg">
<path d="M8.73047 22.4621V23.4621H9.73047H12.5098H13.5098V22.4621V19.7564H14.5979V22.4621V23.4621H15.5979H18.3772H19.3772V22.4621V8.87445V3.93348C19.3772 2.69842 18.377 1.69824 17.1419 1.69824H10.9657C9.73065 1.69824 8.73047 2.69842 8.73047 3.93348V5.78634V22.4621Z" stroke="#272D37" stroke-width="2"/>
<path d="M8.87749 5.78613V4.78613H7.87749H4.17176C2.9367 4.78613 1.93652 5.78631 1.93652 7.02137V21.2266C1.93652 22.4617 2.9367 23.4619 4.17176 23.4619H7.87749H8.87749V22.4619V5.78613Z" stroke="#272D37" stroke-width="2"/>
<path d="M20.2305 7.87451H19.2305V8.87451V22.4622V23.4622H20.2305H23.9362C25.1713 23.4622 26.1714 22.462 26.1714 21.2269V10.1098C26.1714 8.87469 25.1713 7.87451 23.9362 7.87451H20.2305Z" stroke="#272D37" stroke-width="2"/>
<rect x="11.5693" y="5.16602" width="1.89233" height="1.90286" rx="0.3" fill="#272D37"/>
<rect x="11.5693" y="11.4121" width="1.89233" height="1.90286" rx="0.3" fill="#272D37"/>
<rect x="14.6274" y="5.16602" width="1.89233" height="1.90286" rx="0.3" fill="#272D37"/>
<rect x="14.6274" y="11.4121" width="1.89233" height="1.90286" rx="0.3" fill="#272D37"/>
<rect x="14.6274" y="8.18018" width="1.89233" height="1.90286" rx="0.3" fill="#272D37"/>
<rect x="14.6274" y="14.4268" width="1.89233" height="1.90286" rx="0.3" fill="#272D37"/>
<rect x="11.5693" y="8.18018" width="1.89233" height="1.90286" rx="0.3" fill="#272D37"/>
<rect x="11.5693" y="14.4268" width="1.89233" height="1.90286" rx="0.3" fill="#272D37"/>
<rect x="4.8042" y="17.5132" width="1.89233" height="1.90286" rx="0.3" fill="#272D37"/>
<rect x="4.8042" y="14.4268" width="1.89233" height="1.90286" rx="0.3" fill="#272D37"/>
<rect x="4.8042" y="11.3398" width="1.89233" height="1.90286" rx="0.3" fill="#272D37"/>
<rect x="4.8042" y="8.25293" width="1.89233" height="1.90286" rx="0.3" fill="#272D37"/>
<rect x="21.4495" y="11.3398" width="1.89233" height="1.90286" rx="0.3" fill="#272D37"/>
<rect x="21.4495" y="14.4268" width="1.89233" height="1.90286" rx="0.3" fill="#272D37"/>
<rect x="21.4495" y="17.5615" width="1.89233" height="1.90286" rx="0.3" fill="#272D37"/>
</svg>
