<svg width="19" height="19" viewBox="0 0 19 19" fill="none" xmlns="http://www.w3.org/2000/svg">
<path d="M17.0056 15.8777L17.8157 15.6752V15.6752L17.0056 15.8777ZM16.8056 15.0777L15.9956 15.2802L15.9956 15.2802L16.8056 15.0777ZM2.19967 15.0777L1.3896 14.8752H1.3896L2.19967 15.0777ZM1.99967 15.8777L2.80974 16.0802L1.99967 15.8777ZM2.89609 13.9438L2.57266 13.174H2.57266L2.89609 13.9438ZM2.48297 14.2664L3.15136 14.7668L2.48297 14.2664ZM16.5223 14.2664L15.854 14.7668L15.854 14.7668L16.5223 14.2664ZM16.1092 13.9438L16.4327 13.174H16.4327L16.1092 13.9438ZM16.7401 17.721L16.3074 17.0068L16.7401 17.721ZM17.1773 17.161L17.9751 17.4076V17.4076L17.1773 17.161ZM2.26524 17.721L2.69793 17.0068H2.69793L2.26524 17.721ZM1.82802 17.161L2.62579 16.9145H2.62579L1.82802 17.161ZM8.78712 1.2235L8.41369 0.476655L8.41369 0.476655L8.78712 1.2235ZM2.93374 4.15019L3.30716 4.89704H3.30716L2.93374 4.15019ZM2.2182 6.29681L1.47135 6.67024H1.47135L2.2182 6.29681ZM2.3921 6.64462L3.13895 6.27119L3.13895 6.27119L2.3921 6.64462ZM16.6132 6.64462L15.8664 6.27119V6.27119L16.6132 6.64462ZM16.7871 6.29681L16.0403 5.92339L16.0403 5.92339L16.7871 6.29681ZM16.0716 4.15019L16.445 3.40334V3.40334L16.0716 4.15019ZM10.2182 1.2235L10.5916 0.476655L10.2182 1.2235ZM17.161 5.30535L17.996 5.29901L17.161 5.30535ZM16.9655 4.71903L16.2938 5.21495L16.2938 5.21495L16.9655 4.71903ZM2.03977 4.71903L1.36798 4.22312L1.36798 4.22312L2.03977 4.71903ZM1.84433 5.30535L1.00935 5.29901L1.84433 5.30535ZM16.4297 6.85207L16.1574 6.0627L16.1574 6.0627L16.4297 6.85207ZM16.5231 6.79434L17.1073 7.39088L17.1073 7.39087L16.5231 6.79434ZM2.57565 6.85207L2.84792 6.0627H2.84792L2.57565 6.85207ZM2.48224 6.79434L1.89797 7.39087L1.89797 7.39088L2.48224 6.79434ZM9.31826 1.00091L9.16429 0.180232L9.31826 1.00091ZM9.68706 1.00091L9.84103 0.180232L9.68706 1.00091ZM3.66766 12.8657C3.66766 13.3269 4.0415 13.7007 4.50266 13.7007C4.96382 13.7007 5.33766 13.3269 5.33766 12.8657H3.66766ZM5.33766 6.86573C5.33766 6.40457 4.96382 6.03073 4.50266 6.03073C4.0415 6.03073 3.66766 6.40457 3.66766 6.86573H5.33766ZM8.66766 12.8657C8.66766 13.3269 9.0415 13.7007 9.50266 13.7007C9.96381 13.7007 10.3377 13.3269 10.3377 12.8657H8.66766ZM10.3377 7.86573C10.3377 7.40457 9.96381 7.03073 9.50266 7.03073C9.0415 7.03073 8.66766 7.40457 8.66766 7.86573H10.3377ZM13.6677 12.8657C13.6677 13.3269 14.0415 13.7007 14.5027 13.7007C14.9638 13.7007 15.3377 13.3269 15.3377 12.8657H13.6677ZM15.3377 7.86573C15.3377 7.40457 14.9638 7.03073 14.5027 7.03073C14.0415 7.03073 13.6677 7.40457 13.6677 7.86573H15.3377ZM3.5519 18.7007H15.4534V17.0307H3.5519V18.7007ZM17.8157 15.6752L17.6157 14.8752L15.9956 15.2802L16.1956 16.0802L17.8157 15.6752ZM15.2534 13.0307H3.7519V14.7007H15.2534V13.0307ZM1.3896 14.8752L1.1896 15.6752L2.80974 16.0802L3.00974 15.2802L1.3896 14.8752ZM3.7519 13.0307C3.38277 13.0307 2.95152 13.0148 2.57266 13.174L3.21952 14.7136C3.19653 14.7233 3.19909 14.7146 3.28642 14.7083C3.38425 14.7012 3.51664 14.7007 3.7519 14.7007V13.0307ZM3.00974 15.2802C3.0668 15.052 3.0994 14.9236 3.12999 14.8304C3.1573 14.7473 3.16631 14.7469 3.15136 14.7668L1.81458 13.7659C1.56827 14.0948 1.47913 14.517 1.3896 14.8752L3.00974 15.2802ZM2.57266 13.174C2.27184 13.3004 2.01015 13.5047 1.81458 13.7659L3.15136 14.7668C3.16894 14.7433 3.19247 14.725 3.21952 14.7136L2.57266 13.174ZM17.6157 14.8752C17.5262 14.517 17.437 14.0948 17.1907 13.7659L15.854 14.7668C15.839 14.7469 15.848 14.7473 15.8753 14.8304C15.9059 14.9236 15.9385 15.052 15.9956 15.2802L17.6157 14.8752ZM15.2534 14.7007C15.4887 14.7007 15.6211 14.7012 15.7189 14.7083C15.8062 14.7146 15.8088 14.7233 15.7858 14.7136L16.4327 13.174C16.0538 13.0148 15.6226 13.0307 15.2534 13.0307V14.7007ZM17.1907 13.7659C16.9952 13.5047 16.7335 13.3004 16.4327 13.174L15.7858 14.7136C15.8128 14.725 15.8364 14.7433 15.854 14.7668L17.1907 13.7659ZM15.4534 18.7007C15.7873 18.7007 16.0928 18.7015 16.3427 18.6794C16.5988 18.6567 16.894 18.6041 17.1728 18.4351L16.3074 17.0068C16.3473 16.9827 16.3484 17.0024 16.1955 17.0159C16.0364 17.03 15.818 17.0307 15.4534 17.0307V18.7007ZM16.1956 16.0802C16.284 16.4339 16.3362 16.646 16.3612 16.8037C16.3851 16.9553 16.3657 16.9591 16.3795 16.9145L17.9751 17.4076C18.0713 17.0961 18.0508 16.797 18.0107 16.5431C17.9715 16.2953 17.8967 15.9991 17.8157 15.6752L16.1956 16.0802ZM17.1728 18.4351C17.557 18.2024 17.8424 17.8368 17.9751 17.4076L16.3795 16.9145C16.3676 16.953 16.3419 16.9859 16.3074 17.0068L17.1728 18.4351ZM3.5519 17.0307C3.18732 17.0307 2.96887 17.03 2.8098 17.0159C2.65694 17.0024 2.65801 16.9827 2.69793 17.0068L1.83256 18.4351C2.11136 18.6041 2.4065 18.6567 2.66262 18.6794C2.91253 18.7015 3.21797 18.7007 3.5519 18.7007V17.0307ZM1.1896 15.6752C1.10861 15.9991 1.03379 16.2953 0.994625 16.5431C0.954489 16.797 0.933998 17.0961 1.03026 17.4076L2.62579 16.9145C2.63958 16.9591 2.6202 16.9553 2.64415 16.8037C2.66908 16.646 2.72132 16.4339 2.80974 16.0802L1.1896 15.6752ZM2.69793 17.0068C2.66339 16.9859 2.63772 16.953 2.62579 16.9145L1.03026 17.4076C1.1629 17.8368 1.44837 18.2024 1.83256 18.4351L2.69793 17.0068ZM2.74987 7.70073H16.2554V6.03073H2.74987V7.70073ZM8.41369 0.476655L2.56032 3.40334L3.30716 4.89704L9.16054 1.97035L8.41369 0.476655ZM1.47135 6.67024L1.64525 7.01804L3.13895 6.27119L2.96505 5.92339L1.47135 6.67024ZM17.3601 7.01804L17.534 6.67024L16.0403 5.92339L15.8664 6.27119L17.3601 7.01804ZM16.445 3.40334L10.5916 0.476655L9.84478 1.97035L15.6982 4.89704L16.445 3.40334ZM17.534 6.67024C17.653 6.4321 17.7654 6.20887 17.8434 6.01463C17.9251 5.81132 17.998 5.57317 17.996 5.29901L16.326 5.31169C16.3258 5.2776 16.337 5.28473 16.2939 5.3919C16.2472 5.50814 16.1717 5.6606 16.0403 5.92339L17.534 6.67024ZM15.6982 4.89704C15.9609 5.02843 16.1128 5.1051 16.2199 5.17006C16.3187 5.22996 16.314 5.24238 16.2938 5.21495L17.6373 4.22312C17.4745 4.00254 17.2733 3.85577 17.0859 3.74215C16.9069 3.63359 16.6831 3.52241 16.445 3.40334L15.6982 4.89704ZM17.996 5.29901C17.993 4.91151 17.8675 4.53489 17.6373 4.22312L16.2938 5.21495C16.3145 5.24298 16.3257 5.27685 16.326 5.31169L17.996 5.29901ZM2.56032 3.40334C2.32218 3.52241 2.09837 3.63359 1.91938 3.74215C1.73202 3.85577 1.53081 4.00254 1.36798 4.22312L2.71155 5.21495C2.6913 5.24238 2.68662 5.22995 2.78538 5.17006C2.89249 5.1051 3.04438 5.02843 3.30716 4.89704L2.56032 3.40334ZM2.96505 5.92339C2.83365 5.6606 2.75815 5.50814 2.71143 5.3919C2.66836 5.28473 2.67956 5.2776 2.6793 5.31169L1.00935 5.29901C1.00727 5.57318 1.08017 5.81132 1.16188 6.01463C1.23994 6.20887 1.35228 6.4321 1.47135 6.67024L2.96505 5.92339ZM1.36798 4.22312C1.13783 4.53489 1.01229 4.91151 1.00935 5.29901L2.6793 5.31169C2.67957 5.27685 2.69086 5.24298 2.71155 5.21495L1.36798 4.22312ZM16.2554 7.70073C16.2846 7.70073 16.4984 7.71163 16.7019 7.64143L16.1574 6.0627C16.2345 6.0361 16.295 6.03154 16.3094 6.03064C16.3155 6.03026 16.3159 6.03044 16.3047 6.03058C16.2934 6.03072 16.2793 6.03073 16.2554 6.03073V7.70073ZM15.8664 6.27119C15.8557 6.29257 15.8494 6.30517 15.8442 6.31521C15.8391 6.32512 15.8391 6.32474 15.8422 6.31939C15.8494 6.30691 15.8805 6.25489 15.9388 6.1978L17.1073 7.39087C17.2611 7.24024 17.347 7.04417 17.3601 7.01804L15.8664 6.27119ZM16.7019 7.64143C16.854 7.58899 16.9925 7.5034 17.1073 7.39088L15.9388 6.19779C16.0008 6.13713 16.0754 6.09098 16.1574 6.0627L16.7019 7.64143ZM2.74987 6.03073C2.72597 6.03073 2.71187 6.03072 2.70058 6.03058C2.68943 6.03044 2.68977 6.03026 2.69594 6.03064C2.71034 6.03154 2.77079 6.0361 2.84792 6.0627L2.30338 7.64143C2.50689 7.71163 2.72067 7.70073 2.74987 7.70073V6.03073ZM1.64525 7.01804C1.65832 7.04416 1.74417 7.24024 1.89797 7.39087L3.0665 6.1978C3.12479 6.25489 3.1559 6.30691 3.16315 6.31939C3.16625 6.32474 3.16623 6.32512 3.16113 6.31521C3.15595 6.30517 3.14964 6.29257 3.13895 6.27119L1.64525 7.01804ZM2.84792 6.0627C2.92989 6.09098 3.00455 6.13712 3.0665 6.19779L1.89797 7.39088C2.01287 7.50341 2.15134 7.58899 2.30338 7.64143L2.84792 6.0627ZM9.16054 1.97035C9.29936 1.90094 9.37489 1.86347 9.43262 1.83836C9.4823 1.81674 9.48658 1.8189 9.47223 1.82159L9.16429 0.180232C8.88479 0.232669 8.63277 0.367118 8.41369 0.476655L9.16054 1.97035ZM10.5916 0.476655C10.3725 0.367118 10.1205 0.232669 9.84103 0.180232L9.53308 1.82159C9.51874 1.8189 9.52302 1.81674 9.5727 1.83836C9.63042 1.86347 9.70596 1.90094 9.84478 1.97035L10.5916 0.476655ZM9.47223 1.82159C9.49234 1.81782 9.51297 1.81782 9.53308 1.82159L9.84103 0.180232C9.6174 0.138276 9.38792 0.138276 9.16429 0.180232L9.47223 1.82159ZM5.33766 12.8657V6.86573H3.66766V12.8657H5.33766ZM10.3377 12.8657V7.86573H8.66766V12.8657H10.3377ZM15.3377 12.8657V7.86573H13.6677V12.8657H15.3377Z" fill="#272D37"/>
</svg>
