<svg width="17" height="17" viewBox="0 0 17 17" fill="none" xmlns="http://www.w3.org/2000/svg">
<path d="M11.5067 10.8891C10.9948 10.884 10.4838 10.9314 9.98155 11.0306C9.63159 10.6591 9.32405 10.2498 9.06462 9.81024C9.81702 7.64603 9.34192 7.03125 8.6949 7.03125C8.19115 7.03125 7.93973 7.56283 7.99519 8.1508C8.11576 8.6795 8.31354 9.18756 8.58214 9.65862C8.33582 10.3246 8.0481 10.9746 7.72067 11.6047C7.3897 11.7039 7.06577 11.8253 6.75107 11.968C5.54945 12.5227 5.4524 13.2733 5.70289 13.5904C6.17799 14.1914 7.19011 13.6727 8.20502 11.8561C8.9001 11.6583 9.81517 11.3939 9.89743 11.3939C9.9104 11.3948 9.92317 11.3976 9.93533 11.4022C10.375 11.8712 10.9241 12.2237 11.5335 12.4284C11.6542 12.4596 11.7801 12.4647 11.9029 12.4434C12.0258 12.4221 12.1427 12.3749 12.2458 12.305C12.349 12.235 12.4361 12.1439 12.5014 12.0376C12.5666 11.9314 12.6085 11.8125 12.6242 11.6888C12.5992 11.3661 12.4116 10.9437 11.5067 10.8891ZM7.0071 12.8481C6.71316 13.1975 6.23806 13.5322 6.07076 13.4213C5.90346 13.3103 5.87482 12.9877 6.25564 12.6244C6.58104 12.357 6.95657 12.1574 7.36019 12.0373C7.47203 11.9957 7.50069 12.0373 7.50069 12.0937C7.37809 12.3707 7.21105 12.6259 7.00618 12.849L7.0071 12.8481ZM8.29374 8.14986C8.26601 7.80041 8.33534 7.46483 8.62928 7.42323C8.92321 7.38162 9.06279 7.71628 8.95095 8.26173C8.91122 8.58602 8.83621 8.90502 8.72726 9.21303C8.67087 9.25463 8.61541 9.11503 8.61541 9.11503C8.45233 8.81479 8.34374 8.48801 8.29467 8.14986H8.29374ZM8.40559 11.4364C8.55902 11.184 8.95095 10.1643 8.95095 10.1643C9.03506 10.3187 9.69039 11.1008 9.69039 11.1008C9.69039 11.1008 8.68473 11.3245 8.40559 11.4364ZM11.4558 11.8829C11.0492 11.7626 10.6663 11.5734 10.3236 11.3236C10.6859 11.2145 11.064 11.1673 11.442 11.184C11.8755 11.2118 12.0289 11.3939 12.0289 11.576C12.0289 11.7581 11.8718 11.9393 11.4521 11.8829H11.4558Z" fill="#5F6D7E"/>
<path d="M15.0571 3.43225L11.9838 0.35835L11.6926 0.0671387H5.01255C4.30216 0.0688475 3.62135 0.351858 3.11902 0.854272C2.6167 1.35669 2.33374 2.03762 2.33203 2.74813V2.95337H1.93457V6.16872H2.33203V13.3861C2.33374 14.0967 2.6167 14.7776 3.11902 15.28C3.62135 15.7824 4.30216 16.0654 5.01255 16.0671H12.664C13.3744 16.0654 14.0553 15.7824 14.5576 15.28C15.0599 14.7776 15.3429 14.0967 15.3446 13.3861V3.72346L15.0571 3.43225ZM12.664 15.0807H5.01255C4.56418 15.0807 4.13418 14.9026 3.81713 14.5855C3.50009 14.2684 3.32197 13.8383 3.32197 13.3898V6.16872H8.23841V2.95799H3.32197V2.74813C3.32197 2.29969 3.50009 1.86961 3.81713 1.5525C4.13418 1.2354 4.56418 1.05726 5.01255 1.05726H11.0428V2.96446C11.0428 3.33813 11.1912 3.69649 11.4554 3.96071C11.7196 4.22494 12.0779 4.37337 12.4515 4.37337H14.3546V13.3871C14.3546 13.6092 14.3109 13.8291 14.2258 14.0344C14.1408 14.2396 14.0162 14.426 13.8591 14.583C13.7021 14.74 13.5156 14.8646 13.3104 14.9495C13.1051 15.0344 12.8852 15.0781 12.6631 15.0779L12.664 15.0807ZM3.39129 5.25903V3.77246C3.39129 3.76615 3.39254 3.7599 3.39495 3.75406C3.39737 3.74823 3.40091 3.74293 3.40537 3.73847C3.40984 3.734 3.41513 3.73046 3.42097 3.72805C3.4268 3.72563 3.43305 3.72439 3.43936 3.72439H3.91538C3.98723 3.7249 4.05837 3.73869 4.12521 3.76506C4.18654 3.78855 4.24272 3.82371 4.29066 3.86861C4.33774 3.91337 4.37435 3.96798 4.39788 4.02854C4.42272 4.0912 4.43528 4.15805 4.43485 4.22546C4.43556 4.29318 4.423 4.3604 4.39788 4.4233C4.37353 4.48288 4.33701 4.53673 4.29066 4.58138C4.24288 4.62716 4.18627 4.66271 4.12428 4.68585C4.05598 4.71116 3.9836 4.72369 3.91076 4.72283H3.71203V5.2618C3.7118 5.27423 3.70675 5.28609 3.69796 5.29488C3.68917 5.30367 3.67732 5.30871 3.66489 5.30895H3.43936C3.43289 5.30895 3.42648 5.30765 3.42053 5.30512C3.41457 5.30259 3.40919 5.29888 3.4047 5.29422C3.40022 5.28956 3.39672 5.28404 3.39441 5.27799C3.39211 5.27194 3.39105 5.26549 3.39129 5.25903ZM4.84802 5.25903V3.77246C4.84802 3.76615 4.84926 3.7599 4.85168 3.75406C4.85409 3.74823 4.85764 3.74293 4.8621 3.73847C4.86656 3.734 4.87186 3.73046 4.87769 3.72805C4.88352 3.72563 4.88977 3.72439 4.89609 3.72439H5.41832C5.50735 3.72267 5.59577 3.73935 5.67806 3.77338C5.75579 3.80891 5.82392 3.86247 5.87679 3.92962C5.9063 3.96647 5.92999 4.00763 5.94704 4.05165C5.9639 4.09623 5.97628 4.14237 5.98401 4.1894C5.9921 4.2408 5.99674 4.29269 5.99787 4.34471C5.99787 4.39741 5.99787 4.45473 5.99787 4.51482C5.99787 4.57491 5.99787 4.63223 5.99787 4.68492C5.99671 4.73695 5.99207 4.78883 5.98401 4.84024C5.9763 4.88727 5.96392 4.93342 5.94704 4.97798C5.93027 5.02195 5.90689 5.0631 5.87771 5.10002C5.8251 5.16766 5.75692 5.22158 5.67898 5.25718C5.59678 5.29147 5.5083 5.30816 5.41925 5.30617H4.89516C4.88897 5.30617 4.88284 5.30496 4.87712 5.30259C4.8714 5.30022 4.8662 5.29674 4.86183 5.29237C4.85745 5.28799 4.85398 5.28279 4.85161 5.27707C4.84924 5.27135 4.84802 5.26522 4.84802 5.25903ZM7.33536 4.38077C7.34795 4.38101 7.35994 4.38618 7.36875 4.39517C7.37757 4.40416 7.3825 4.41625 7.3825 4.42884V4.6313C7.3825 4.64389 7.37757 4.65598 7.36875 4.66497C7.35994 4.67396 7.34795 4.67913 7.33536 4.67938H6.76505V5.25995C6.76481 5.27254 6.75964 5.28453 6.75065 5.29335C6.74167 5.30216 6.72958 5.3071 6.71699 5.3071H6.49146C6.47903 5.30686 6.46718 5.30182 6.45838 5.29303C6.4496 5.28424 6.44455 5.27238 6.44432 5.25995V3.77246C6.44431 3.75987 6.44925 3.74778 6.45806 3.73879C6.46688 3.7298 6.47887 3.72463 6.49146 3.72439H7.35569C7.36201 3.72439 7.36826 3.72563 7.37409 3.72805C7.37992 3.73046 7.38522 3.734 7.38968 3.73847C7.39414 3.74293 7.39768 3.74823 7.4001 3.75406C7.40252 3.7599 7.40376 3.76615 7.40376 3.77246V3.97492C7.40376 3.98767 7.39869 3.9999 7.38968 4.00891C7.38067 4.01793 7.36844 4.02299 7.35569 4.02299H6.76413V4.38077H7.33536Z" fill="#5F6D7E"/>
<path d="M4.05771 4.37245C4.09397 4.33153 4.11399 4.27875 4.11399 4.22407C4.11399 4.16939 4.09397 4.11661 4.05771 4.07569C4.01331 4.03862 3.95648 4.01978 3.89873 4.023H3.71387V4.42422H3.89873C3.95636 4.42769 4.01317 4.40919 4.05771 4.37245Z" fill="#5F6D7E"/>
<path d="M5.51927 4.98997C5.55506 4.97611 5.58681 4.95355 5.6117 4.92433C5.64432 4.88403 5.66369 4.83463 5.66715 4.78289C5.68321 4.60482 5.68321 4.42567 5.66715 4.24761C5.66345 4.1962 5.64409 4.14717 5.6117 4.1071C5.58679 4.07791 5.55504 4.05535 5.51927 4.04145C5.47872 4.02666 5.43579 4.01946 5.39263 4.02019H5.16895V5.01031H5.39263C5.43573 5.01128 5.47865 5.00438 5.51927 4.98997Z" fill="#5F6D7E"/>
</svg>
