<svg width="40" height="41" viewBox="0 0 40 41" fill="none" xmlns="http://www.w3.org/2000/svg">
<rect y="0.0862579" width="39.6333" height="40" rx="19.8166" fill="#DAE0E6"/>
<path d="M12.4353 25.0863V14.9044H16.0645C16.8567 14.9044 17.5129 15.0486 18.0333 15.337C18.5536 15.6253 18.9431 16.0197 19.2016 16.5202C19.4601 17.0174 19.5894 17.5775 19.5894 18.2006C19.5894 18.827 19.4585 19.3905 19.1966 19.8909C18.9381 20.3881 18.547 20.7825 18.0233 21.0742C17.503 21.3625 16.8484 21.5067 16.0595 21.5067H13.5638V20.2042H15.9203C16.4208 20.2042 16.8268 20.118 17.1384 19.9456C17.4499 19.77 17.6786 19.5313 17.8245 19.2297C17.9703 18.9281 18.0432 18.5851 18.0432 18.2006C18.0432 17.8161 17.9703 17.4748 17.8245 17.1765C17.6786 16.8782 17.4483 16.6445 17.1334 16.4755C16.8219 16.3064 16.4109 16.2219 15.9005 16.2219H13.9715V25.0863H12.4353ZM24.3665 25.2404C23.6141 25.2404 22.9662 25.0796 22.4226 24.7581C21.8824 24.4333 21.4648 23.9776 21.1698 23.3909C20.8781 22.801 20.7323 22.1099 20.7323 21.3178C20.7323 20.5356 20.8781 19.8462 21.1698 19.2496C21.4648 18.653 21.8757 18.1873 22.4027 17.8526C22.933 17.5178 23.5528 17.3505 24.2621 17.3505C24.693 17.3505 25.1106 17.4217 25.5149 17.5642C25.9193 17.7068 26.2822 17.9305 26.6037 18.2354C26.9252 18.5403 27.1788 18.9364 27.3644 19.4236C27.55 19.9075 27.6428 20.4958 27.6428 21.1885V21.7155H21.5725V20.6019H26.1861C26.1861 20.2108 26.1066 19.8644 25.9475 19.5628C25.7884 19.2579 25.5647 19.0176 25.2763 18.8419C24.9913 18.6663 24.6565 18.5784 24.272 18.5784C23.8544 18.5784 23.4899 18.6812 23.1783 18.8867C22.8701 19.0889 22.6314 19.354 22.4624 19.6821C22.2967 20.0069 22.2138 20.3599 22.2138 20.7411V21.6111C22.2138 22.1215 22.3033 22.5557 22.4823 22.9137C22.6646 23.2716 22.9181 23.5451 23.2429 23.734C23.5677 23.9196 23.9472 24.0124 24.3814 24.0124C24.6631 24.0124 24.92 23.9726 25.152 23.8931C25.384 23.8102 25.5845 23.6876 25.7536 23.5252C25.9226 23.3628 26.0519 23.1623 26.1414 22.9236L27.5483 23.1772C27.4356 23.5915 27.2335 23.9544 26.9418 24.2659C26.6534 24.5742 26.2905 24.8145 25.853 24.9868C25.4188 25.1559 24.9233 25.2404 24.3665 25.2404Z" fill="black"/>
</svg>
