<svg width="49" height="46" viewBox="0 0 49 46" fill="none" xmlns="http://www.w3.org/2000/svg">
<rect x="1.25134" y="0.790527" width="47" height="44.415" rx="6.5" stroke="#056A3A"/>
<path d="M16.7557 21.9168C17.0006 19.8147 17.9504 17.8829 19.425 16.4877C20.8996 15.0926 22.7964 14.3311 24.7557 14.3477C26.0498 14.3492 27.3242 14.6901 28.4696 15.3411C29.615 15.9922 30.5973 16.934 31.3322 18.0858C32.067 19.2375 32.5325 20.5649 32.6887 21.9539C32.8449 23.3429 32.6872 24.7522 32.229 26.0608C31.7709 27.3695 31.026 28.5384 30.0582 29.4673C29.0905 30.3963 27.9288 31.0575 26.6728 31.3943C25.4168 31.7311 24.104 31.7334 22.847 31.401C21.59 31.0687 20.4263 30.4115 19.4557 29.486L16.7557 26.8909" stroke="#056A3A" stroke-width="1.5" stroke-linecap="round" stroke-linejoin="round"/>
<path d="M21.7557 26.2418H16.7557V31.6484" stroke="#056A3A" stroke-width="1.5" stroke-linecap="round" stroke-linejoin="round"/>
</svg>
