<svg width="18" height="20" viewBox="0 0 18 20" fill="none" xmlns="http://www.w3.org/2000/svg">
<path d="M1.07935 8.64658C1.32499 6.54449 2.27784 4.61265 3.75716 3.21748C5.23648 1.8223 7.1394 1.06081 9.10502 1.07741C10.4032 1.0789 11.6817 1.4198 12.8308 2.07088C13.9799 2.72195 14.9654 3.66377 15.7026 4.81553C16.4398 5.96729 16.9068 7.29461 17.0635 8.68365C17.2202 10.0727 17.0619 11.482 16.6023 12.7906C16.1427 14.0992 15.3954 15.2681 14.4245 16.1971C13.4537 17.126 12.2883 17.7872 11.0282 18.124C9.7682 18.4608 8.45117 18.4632 7.19013 18.1308C5.92908 17.7984 4.76166 17.1413 3.78801 16.2157L1.07935 13.6206" stroke="#5F6D7E" stroke-width="1.5" stroke-linecap="round" stroke-linejoin="round"/>
<path d="M6.09539 12.9717H1.07935V18.3782" stroke="#5F6D7E" stroke-width="1.5" stroke-linecap="round" stroke-linejoin="round"/>
</svg>
