<svg width="17" height="17" viewBox="0 0 17 17" fill="none" xmlns="http://www.w3.org/2000/svg">
<path fill-rule="evenodd" clip-rule="evenodd" d="M13.4233 0.280762C13.809 0.280762 14.179 0.434005 14.4518 0.706791L16.5088 2.76382C16.7816 3.03661 16.9348 3.40657 16.9348 3.79235V14.0989C16.9348 15.304 15.958 16.2808 14.753 16.2808H3.11663C1.91165 16.2808 0.934814 15.304 0.934814 14.0989V2.46258C0.934814 1.2576 1.91165 0.280762 3.11663 0.280762H13.4233ZM3.11663 1.73531C2.71497 1.73531 2.38936 2.06092 2.38936 2.46258V14.0989C2.38936 14.5006 2.71497 14.8262 3.11663 14.8262H3.84391V10.4626C3.84391 9.25756 4.82074 8.28076 6.02572 8.28076H11.8439C13.0489 8.28076 14.0257 9.25756 14.0257 10.4626V14.8262H14.753C15.1547 14.8262 15.4803 14.5006 15.4803 14.0989V4.51962C15.4803 4.13385 15.327 3.76388 15.0542 3.4911L13.7245 2.16134C13.4517 1.88855 13.0817 1.73531 12.696 1.73531H12.5712V3.18985C12.5712 4.39483 11.5944 5.37167 10.3894 5.37167H7.48027C6.27529 5.37167 5.29845 4.39483 5.29845 3.18985V1.73531H3.11663ZM12.5712 14.8262V10.4626C12.5712 10.0609 12.2456 9.73531 11.8439 9.73531H6.02572C5.62407 9.73531 5.29845 10.0609 5.29845 10.4626V14.8262H12.5712ZM6.753 1.73531H11.1166V3.18985C11.1166 3.59151 10.791 3.91713 10.3894 3.91713H7.48027C7.07861 3.91713 6.753 3.59151 6.753 3.18985V1.73531Z" fill="white"/>
</svg>
