<svg width="17" height="17" viewBox="0 0 17 17" fill="none" xmlns="http://www.w3.org/2000/svg">
<path fill-rule="evenodd" clip-rule="evenodd" d="M12.8875 0.280762C13.2732 0.280762 13.6432 0.434005 13.916 0.706791L15.973 2.76382C16.2458 3.03661 16.399 3.40657 16.399 3.79235V14.0989C16.399 15.304 15.4222 16.2808 14.2172 16.2808H2.58087C1.37588 16.2808 0.399048 15.304 0.399048 14.0989V2.46258C0.399048 1.2576 1.37588 0.280762 2.58087 0.280762H12.8875ZM2.58087 1.73531C2.17921 1.73531 1.85359 2.06092 1.85359 2.46258V14.0989C1.85359 14.5006 2.17921 14.8262 2.58087 14.8262H3.30814V10.4626C3.30814 9.25756 4.28498 8.28076 5.48996 8.28076H11.3081C12.5132 8.28076 13.49 9.25756 13.49 10.4626V14.8262H14.2172C14.6189 14.8262 14.9445 14.5006 14.9445 14.0989V4.51962C14.9445 4.13385 14.7913 3.76388 14.5185 3.4911L13.1887 2.16134C12.9159 1.88855 12.546 1.73531 12.1602 1.73531H12.0354V3.18985C12.0354 4.39483 11.0586 5.37167 9.85359 5.37167H6.9445C5.73952 5.37167 4.76268 4.39483 4.76268 3.18985V1.73531H2.58087ZM12.0354 14.8262V10.4626C12.0354 10.0609 11.7098 9.73531 11.3081 9.73531H5.48996C5.0883 9.73531 4.76268 10.0609 4.76268 10.4626V14.8262H12.0354ZM6.21723 1.73531H10.5809V3.18985C10.5809 3.59151 10.2553 3.91713 9.85359 3.91713H6.9445C6.54284 3.91713 6.21723 3.59151 6.21723 3.18985V1.73531Z" fill="#056A3A"/>
</svg>
