<svg width="49" height="43" viewBox="0 0 49 43" fill="none" xmlns="http://www.w3.org/2000/svg">
<g id="Group 512645">
<rect id="Button BG" x="0.811279" y="0.977509" width="48" height="42" rx="7" fill="url(#paint0_linear_202_4290)"/>
<path id="Icon" d="M32.0872 30.2114C32.382 30.5023 32.8569 30.4992 33.1478 30.2043C33.4388 29.9095 33.4356 29.4346 33.1408 29.1437L32.0872 30.2114ZM29.1101 20.6187C29.1101 23.6973 26.5784 26.2099 23.4345 26.2099V27.7099C27.3881 27.7099 30.6101 24.5444 30.6101 20.6187H29.1101ZM23.4345 26.2099C20.2905 26.2099 17.7588 23.6973 17.7588 20.6187H16.2588C16.2588 24.5444 19.4808 27.7099 23.4345 27.7099V26.2099ZM17.7588 20.6187C17.7588 17.5401 20.2905 15.0275 23.4345 15.0275V13.5275C19.4808 13.5275 16.2588 16.693 16.2588 20.6187H17.7588ZM23.4345 15.0275C26.5784 15.0275 29.1101 17.5401 29.1101 20.6187H30.6101C30.6101 16.693 27.3881 13.5275 23.4345 13.5275V15.0275ZM27.4974 25.6819L32.0872 30.2114L33.1408 29.1437L28.551 24.6143L27.4974 25.6819Z" fill="white"/>
</g>
<defs>
<linearGradient id="paint0_linear_202_4290" x1="48.8113" y1="0.977507" x2="7.51229" y2="51.1022" gradientUnits="userSpaceOnUse">
<stop offset="0.182292" stop-color="#93B722"/>
<stop offset="1" stop-color="#056A3A"/>
</linearGradient>
</defs>
</svg>
