<svg width="18" height="18" viewBox="0 0 18 18" fill="none" xmlns="http://www.w3.org/2000/svg">
<path id="Icon" d="M16.1607 17.2113C16.4556 17.5023 16.9304 17.4991 17.2214 17.2043C17.5123 16.9095 17.5092 16.4346 17.2144 16.1437L16.1607 17.2113ZM13.1837 7.61867C13.1837 10.6973 10.652 13.2098 7.50801 13.2098V14.7098C11.4616 14.7098 14.6837 11.5444 14.6837 7.61867H13.1837ZM7.50801 13.2098C4.36403 13.2098 1.83234 10.6973 1.83234 7.61867H0.332336C0.332336 11.5444 3.55439 14.7098 7.50801 14.7098V13.2098ZM1.83234 7.61867C1.83234 4.54008 4.36403 2.0275 7.50801 2.0275V0.527496C3.55439 0.527496 0.332336 3.693 0.332336 7.61867H1.83234ZM7.50801 2.0275C10.652 2.0275 13.1837 4.54008 13.1837 7.61867H14.6837C14.6837 3.693 11.4616 0.527496 7.50801 0.527496V2.0275ZM11.571 12.6819L16.1607 17.2113L17.2144 16.1437L12.6246 11.6143L11.571 12.6819Z" fill="#919396"/>
</svg>
