<svg width="21" height="20" viewBox="0 0 21 20" fill="none" xmlns="http://www.w3.org/2000/svg">
<g id="trash/alt">
<path id="Icon" d="M9.76322 8.33333C9.76322 7.91912 9.42744 7.58333 9.01322 7.58333C8.59901 7.58333 8.26322 7.91912 8.26322 8.33333H9.76322ZM8.26322 15C8.26322 15.4142 8.59901 15.75 9.01322 15.75C9.42744 15.75 9.76322 15.4142 9.76322 15H8.26322ZM13.0966 8.33333C13.0966 7.91912 12.7608 7.58333 12.3466 7.58333C11.9323 7.58333 11.5966 7.91912 11.5966 8.33333H13.0966ZM11.5966 15C11.5966 15.4142 11.9323 15.75 12.3466 15.75C12.7608 15.75 13.0966 15.4142 13.0966 15H11.5966ZM6.58991 17.3183L6.9304 16.6501H6.9304L6.58991 17.3183ZM5.86155 16.59L6.5298 16.2495H6.5298L5.86155 16.59ZM15.4982 16.59L14.83 16.2495L15.4982 16.59ZM14.7699 17.3183L14.4294 16.6501L14.4294 16.6501L14.7699 17.3183ZM4.84656 5.08333C4.43234 5.08333 4.09656 5.41912 4.09656 5.83333C4.09656 6.24755 4.43234 6.58333 4.84656 6.58333V5.08333ZM16.5132 6.58333C16.9274 6.58333 17.2632 6.24755 17.2632 5.83333C17.2632 5.41912 16.9274 5.08333 16.5132 5.08333V6.58333ZM7.01322 5.83333C7.01322 6.24755 7.34901 6.58333 7.76322 6.58333C8.17744 6.58333 8.51322 6.24755 8.51322 5.83333H7.01322ZM12.8466 5.83333C12.8466 6.24755 13.1823 6.58333 13.5966 6.58333C14.0108 6.58333 14.3466 6.24755 14.3466 5.83333H12.8466ZM8.26322 8.33333V15H9.76322V8.33333H8.26322ZM11.5966 8.33333V15H13.0966V8.33333H11.5966ZM14.9299 5.83333V14.8333H16.4299V5.83333H14.9299ZM13.0132 16.75H8.34656V18.25H13.0132V16.75ZM4.92989 5.83333V14.8333H6.42989V5.83333H4.92989ZM8.34656 16.75C7.86747 16.75 7.55326 16.7494 7.31297 16.7298C7.08143 16.7109 6.98531 16.6781 6.9304 16.6501L6.24941 17.9866C6.55102 18.1403 6.86652 18.1983 7.19082 18.2248C7.50637 18.2506 7.89222 18.25 8.34656 18.25V16.75ZM4.92989 14.8333C4.92989 15.2877 4.92931 15.6735 4.95509 15.9891C4.98159 16.3134 5.03961 16.6289 5.19329 16.9305L6.5298 16.2495C6.50182 16.1946 6.46902 16.0985 6.45011 15.8669C6.43047 15.6266 6.42989 15.3124 6.42989 14.8333H4.92989ZM6.9304 16.6501C6.75792 16.5622 6.61769 16.422 6.5298 16.2495L5.19329 16.9305C5.42499 17.3852 5.79469 17.7549 6.24941 17.9866L6.9304 16.6501ZM14.9299 14.8333C14.9299 15.3124 14.9293 15.6266 14.9097 15.8669C14.8908 16.0985 14.858 16.1946 14.83 16.2495L16.1665 16.9305C16.3202 16.6289 16.3782 16.3134 16.4047 15.9891C16.4305 15.6735 16.4299 15.2877 16.4299 14.8333H14.9299ZM13.0132 18.25C13.4676 18.25 13.8534 18.2506 14.169 18.2248C14.4933 18.1983 14.8088 18.1403 15.1104 17.9866L14.4294 16.6501C14.3745 16.6781 14.2784 16.7109 14.0468 16.7298C13.8065 16.7494 13.4923 16.75 13.0132 16.75V18.25ZM14.83 16.2495C14.7421 16.422 14.6019 16.5622 14.4294 16.6501L15.1104 17.9866C15.5651 17.7549 15.9348 17.3852 16.1665 16.9305L14.83 16.2495ZM4.84656 6.58333H5.67989V5.08333H4.84656V6.58333ZM5.67989 6.58333H15.6799V5.08333H5.67989V6.58333ZM15.6799 6.58333H16.5132V5.08333H15.6799V6.58333ZM8.51322 5.16667C8.51322 4.16996 9.4186 3.25 10.6799 3.25V1.75C8.71952 1.75 7.01322 3.21785 7.01322 5.16667H8.51322ZM10.6799 3.25C11.9412 3.25 12.8466 4.16996 12.8466 5.16667H14.3466C14.3466 3.21785 12.6403 1.75 10.6799 1.75V3.25ZM7.01322 5.16667V5.83333H8.51322V5.16667H7.01322ZM12.8466 5.16667V5.83333H14.3466V5.16667H12.8466Z" fill="#E2341D"/>
</g>
</svg>
