<svg width="16" height="17" viewBox="0 0 16 17" fill="none" xmlns="http://www.w3.org/2000/svg">
<g id="Twitter" clip-path="url(#clip0_93_6455)">
<path id="Vector" d="M8 0.600586C3.582 0.600586 0 4.18259 0 8.60059C0 13.0186 3.582 16.6006 8 16.6006C12.418 16.6006 16 13.0186 16 8.60059C16 4.18259 12.418 0.600586 8 0.600586ZM12.044 7.03059C12.166 9.72392 10.1573 12.7266 6.60133 12.7266C5.52 12.7266 4.514 12.4093 3.66667 11.8659C4.68267 11.9859 5.69667 11.7033 6.50133 11.0733C5.664 11.0579 4.95667 10.5039 4.712 9.74325C5.01267 9.80059 5.30867 9.78392 5.57733 9.71059C4.65667 9.52525 4.02067 8.69592 4.04133 7.80859C4.3 7.95192 4.59467 8.03792 4.90867 8.04792C4.056 7.47792 3.81467 6.35192 4.316 5.49125C5.26 6.64992 6.67133 7.41192 8.26267 7.49192C7.98333 6.29459 8.892 5.14059 10.1287 5.14059C10.6787 5.14059 11.1767 5.37325 11.526 5.74525C11.962 5.65992 12.3727 5.49992 12.742 5.28059C12.5987 5.72792 12.2953 6.10259 11.9 6.33992C12.2873 6.29325 12.6567 6.19059 12.9993 6.03792C12.7433 6.42325 12.4193 6.76059 12.044 7.03059V7.03059Z" fill="#5F6D7E" fill-opacity="0.5"/>
</g>
<defs>
<clipPath id="clip0_93_6455">
<rect width="16" height="16" fill="white" transform="translate(0 0.600586)"/>
</clipPath>
</defs>
</svg>
