<svg width="17" height="16" viewBox="0 0 17 16" fill="none" xmlns="http://www.w3.org/2000/svg">
<path d="M12.6637 16H5.01395C4.30363 15.9983 3.6229 15.7154 3.12063 15.2131C2.61836 14.7108 2.33543 14.0301 2.33373 13.3198V6.09981H1.93262V3.69686H2.33003V2.68022C2.33174 1.96927 2.61518 1.28798 3.11825 0.785603C3.62131 0.283229 4.30299 0.00073164 5.01395 0H11.6932L11.9844 0.291128L15.0565 3.36506L15.3467 3.65619V13.3161C15.3457 14.0274 15.0627 14.7094 14.5598 15.2125C14.0569 15.7156 13.375 15.9988 12.6637 16ZM3.31894 6.09981V13.3152C3.31943 13.7633 3.49768 14.193 3.81458 14.5099C4.13149 14.8268 4.56116 15.0051 5.00933 15.0055H12.659C13.1074 15.0053 13.5373 14.8272 13.8544 14.5102C14.1715 14.1933 14.3499 13.7635 14.3504 13.3152V4.30499H12.452C12.0786 4.3045 11.7206 4.15595 11.4566 3.89191C11.1926 3.62787 11.044 3.2699 11.0435 2.89649V0.994455H5.01395C4.56578 0.993717 4.13562 1.17079 3.81785 1.48683C3.50008 1.80287 3.32065 2.23205 3.31894 2.68022V3.69686H8.23946V6.09981H3.31894Z" fill="#5F6D7E"/>
<path d="M5.7627 8.34723C6.01009 8.36025 6.2015 8.37067 6.33691 8.37848C6.47493 8.38369 6.58561 8.38629 6.66895 8.38629C6.78353 8.38629 6.91634 8.38369 7.06738 8.37848C7.22103 8.37067 7.40723 8.36025 7.62598 8.34723V8.68317H7.48926C7.3877 8.68317 7.31217 8.7053 7.2627 8.74957C7.21322 8.79124 7.18848 8.85634 7.18848 8.94489C7.18848 8.97874 7.19368 9.02301 7.2041 9.0777C7.21712 9.12978 7.23535 9.18707 7.25879 9.24957L7.9541 11.2339L8.85254 9.21051L8.78613 9.0191C8.73405 8.87587 8.67936 8.78473 8.62207 8.74567C8.56738 8.704 8.48405 8.68317 8.37207 8.68317H8.2666V8.34723C8.52702 8.36285 8.72363 8.37327 8.85645 8.37848C8.99186 8.38369 9.10254 8.38629 9.18848 8.38629C9.29264 8.38629 9.41895 8.38369 9.56738 8.37848C9.71842 8.37067 9.91374 8.36025 10.1533 8.34723V8.68317H10.0283C9.92155 8.68317 9.84342 8.7027 9.79395 8.74176C9.74707 8.77822 9.72363 8.83811 9.72363 8.92145C9.72363 8.9527 9.72754 8.98916 9.73535 9.03082C9.74577 9.07249 9.7653 9.1402 9.79395 9.23395L10.4814 11.2261L10.6572 10.7691C11.0843 9.65973 11.2979 9.03864 11.2979 8.90582C11.2979 8.82509 11.2692 8.7678 11.2119 8.73395C11.1572 8.70009 11.0635 8.68317 10.9307 8.68317H10.8369V8.34723C11.0218 8.36025 11.1781 8.37067 11.3057 8.37848C11.4359 8.38369 11.5479 8.38629 11.6416 8.38629C11.7041 8.38629 11.8161 8.38108 11.9775 8.37067C12.139 8.36025 12.2666 8.35244 12.3604 8.34723L12.3643 8.67535C12.359 8.67275 12.3538 8.67145 12.3486 8.67145C12.3174 8.66364 12.2926 8.65973 12.2744 8.65973C12.0739 8.65973 11.7484 9.23265 11.2979 10.3785C10.9906 11.1597 10.7275 11.803 10.5088 12.3082H9.94629L9.05957 9.81207C8.81478 10.3225 8.59733 10.7991 8.40723 11.2418C8.21712 11.6819 8.07389 12.0373 7.97754 12.3082H7.41895C7.21061 11.7457 6.96842 11.066 6.69238 10.2691C6.41895 9.47223 6.24577 9.00999 6.17285 8.88239C6.12858 8.80686 6.0804 8.75348 6.02832 8.72223C5.97884 8.69098 5.91764 8.67535 5.84473 8.67535C5.83691 8.67535 5.82389 8.67666 5.80566 8.67926C5.78743 8.68186 5.77311 8.68317 5.7627 8.68317V8.34723Z" fill="#5F6D7E"/>
<path d="M3.84295 5.46906H3.43814V4.27445H3.85112C3.96972 4.27445 4.07161 4.29837 4.15677 4.3462C4.24232 4.39364 4.30804 4.46189 4.35392 4.55094C4.39981 4.63999 4.42275 4.74654 4.42275 4.87059C4.42275 4.99503 4.39962 5.10196 4.35334 5.1914C4.30745 5.28084 4.24115 5.34948 4.15443 5.39731C4.06811 5.44514 3.96428 5.46906 3.84295 5.46906ZM3.65454 5.28182H3.83245C3.91567 5.28182 3.98508 5.26665 4.04069 5.23632C4.0963 5.2056 4.1381 5.15991 4.1661 5.09924C4.1941 5.03819 4.2081 4.96197 4.2081 4.87059C4.2081 4.7792 4.1941 4.70337 4.1661 4.6431C4.1381 4.58244 4.09669 4.53713 4.04186 4.50719C3.98742 4.47686 3.91975 4.46169 3.83887 4.46169H3.65454V5.28182ZM5.71224 4.87175C5.71224 5.00047 5.68813 5.11071 5.63991 5.20249C5.59208 5.29387 5.52675 5.36387 5.44392 5.41247C5.36148 5.46108 5.26795 5.48539 5.16335 5.48539C5.05874 5.48539 4.96503 5.46108 4.8822 5.41247C4.79976 5.36348 4.73443 5.29329 4.68621 5.2019C4.63838 5.11013 4.61446 5.00008 4.61446 4.87175C4.61446 4.74304 4.63838 4.63299 4.68621 4.54161C4.73443 4.44983 4.79976 4.37964 4.8822 4.33103C4.96503 4.28242 5.05874 4.25812 5.16335 4.25812C5.26795 4.25812 5.36148 4.28242 5.44392 4.33103C5.52675 4.37964 5.59208 4.44983 5.63991 4.54161C5.68813 4.63299 5.71224 4.74304 5.71224 4.87175ZM5.49466 4.87175C5.49466 4.78115 5.48047 4.70474 5.45208 4.64252C5.42408 4.57991 5.3852 4.53266 5.33542 4.50077C5.28565 4.4685 5.22829 4.45236 5.16335 4.45236C5.09841 4.45236 5.04105 4.4685 4.99127 4.50077C4.9415 4.53266 4.90242 4.57991 4.87403 4.64252C4.84603 4.70474 4.83203 4.78115 4.83203 4.87175C4.83203 4.96236 4.84603 5.03897 4.87403 5.10157C4.90242 5.16379 4.9415 5.21104 4.99127 5.24332C5.04105 5.2752 5.09841 5.29115 5.16335 5.29115C5.22829 5.29115 5.28565 5.2752 5.33542 5.24332C5.3852 5.21104 5.42408 5.16379 5.45208 5.10157C5.48047 5.03897 5.49466 4.96236 5.49466 4.87175ZM6.95578 4.67751H6.73763C6.73141 4.64174 6.71993 4.61005 6.70321 4.58244C6.68649 4.55444 6.66569 4.53072 6.6408 4.51127C6.61591 4.49183 6.58752 4.47725 6.55564 4.46753C6.52414 4.45742 6.49011 4.45236 6.45356 4.45236C6.38862 4.45236 6.33107 4.46869 6.2809 4.50136C6.23074 4.53363 6.19146 4.58108 6.16308 4.64368C6.13469 4.7059 6.12049 4.78193 6.12049 4.87175C6.12049 4.96314 6.13469 5.04013 6.16308 5.10274C6.19185 5.16496 6.23113 5.21201 6.2809 5.2439C6.33107 5.2754 6.38842 5.29115 6.45298 5.29115C6.48875 5.29115 6.52219 5.28648 6.5533 5.27715C6.5848 5.26743 6.613 5.25323 6.63788 5.23457C6.66316 5.2159 6.68435 5.19296 6.70146 5.16574C6.71896 5.13852 6.73102 5.10741 6.73763 5.07241L6.95578 5.07358C6.94762 5.13035 6.92992 5.18363 6.9027 5.2334C6.87587 5.28318 6.84068 5.32712 6.79712 5.36523C6.75357 5.40295 6.70263 5.4325 6.6443 5.45389C6.58597 5.47489 6.52122 5.48539 6.45006 5.48539C6.34507 5.48539 6.25135 5.46108 6.16891 5.41247C6.08647 5.36387 6.02153 5.29368 5.97409 5.2019C5.92664 5.11013 5.90292 5.00008 5.90292 4.87175C5.90292 4.74304 5.92684 4.63299 5.97467 4.54161C6.0225 4.44983 6.08763 4.37964 6.17007 4.33103C6.25251 4.28242 6.34584 4.25812 6.45006 4.25812C6.51656 4.25812 6.57839 4.26745 6.63555 4.28612C6.69271 4.30478 6.74365 4.3322 6.78837 4.36836C6.83309 4.40414 6.86984 4.44808 6.89862 4.50019C6.92778 4.55191 6.94684 4.61102 6.95578 4.67751Z" fill="white"/>
</svg>
