<svg width="17" height="17" viewBox="0 0 17 17" fill="none" xmlns="http://www.w3.org/2000/svg">
<g id="Frame 5">
<g id="Group 10610">
<path id="Subtraction 16" d="M12.6637 16.0671H5.01395C4.30363 16.0654 3.6229 15.7825 3.12063 15.2802C2.61836 14.778 2.33543 14.0972 2.33373 13.3869V6.16695H1.93262V3.764H2.33003V2.74736C2.33174 2.03641 2.61518 1.35512 3.11825 0.852742C3.62131 0.350367 4.30299 0.0678703 5.01395 0.0671387L11.6932 0.0671387L11.9844 0.358266L15.0565 3.4322L15.3467 3.72333V13.3832C15.3457 14.0946 15.0627 14.7765 14.5598 15.2796C14.0569 15.7827 13.375 16.0659 12.6637 16.0671ZM3.31894 6.16695V13.3823C3.31943 13.8305 3.49768 14.2601 3.81458 14.577C4.13149 14.8939 4.56116 15.0722 5.00933 15.0727H12.659C13.1074 15.0724 13.5373 14.8943 13.8544 14.5774C14.1715 14.2604 14.3499 13.8306 14.3504 13.3823V4.37213H12.452C12.0786 4.37164 11.7206 4.22309 11.4566 3.95905C11.1926 3.69501 11.044 3.33703 11.0435 2.96363V1.06159H5.01395C4.56578 1.06086 4.13562 1.23793 3.81785 1.55397C3.50008 1.87001 3.32065 2.29919 3.31894 2.74736V3.764H8.23946V6.16695H3.31894ZM5.93262 5.18544C5.93286 5.25173 5.94803 5.31712 5.97698 5.37675C6.0034 5.43133 6.04011 5.48029 6.08511 5.52093C6.12981 5.56087 6.18151 5.59221 6.23761 5.61335C6.29352 5.63406 6.35266 5.6447 6.41228 5.64477C6.4747 5.64517 6.53688 5.63708 6.59713 5.62074C6.64972 5.60655 6.69924 5.58274 6.74315 5.5505C6.78244 5.51925 6.81406 5.47941 6.83557 5.43405C6.85913 5.38279 6.87081 5.32687 6.86977 5.27047C6.87099 5.22464 6.86083 5.17924 6.8402 5.1383C6.81984 5.10271 6.79286 5.07134 6.76071 5.04588C6.72599 5.01917 6.68813 4.99682 6.64796 4.97934C6.59713 4.95808 6.55554 4.94329 6.51949 4.93036L6.3901 4.88692C6.35166 4.87489 6.31425 4.85975 6.27827 4.84163C6.25027 4.82574 6.22525 4.8051 6.20434 4.78063C6.19336 4.76803 6.18502 4.75336 6.17978 4.73749C6.17454 4.72162 6.17252 4.70487 6.17384 4.68821C6.1733 4.66224 6.18002 4.63663 6.19325 4.61427C6.20633 4.59436 6.2237 4.57763 6.24408 4.56529C6.26636 4.55223 6.29076 4.54316 6.31617 4.53849C6.3426 4.53286 6.36955 4.53007 6.39657 4.53017C6.42604 4.52969 6.45539 4.53406 6.48345 4.54311C6.50964 4.55339 6.53352 4.56878 6.55369 4.5884C6.57533 4.60823 6.59291 4.63209 6.60545 4.65864C6.61884 4.69107 6.62725 4.72535 6.6304 4.7603H6.84112C6.83794 4.71316 6.82894 4.66659 6.81432 4.62167C6.79797 4.57153 6.7709 4.52554 6.73499 4.48692C6.69908 4.4483 6.65519 4.41796 6.60637 4.39801C6.53953 4.37085 6.46776 4.35795 6.39565 4.36011C6.33736 4.3596 6.27925 4.36675 6.22282 4.38137C6.17362 4.39385 6.12722 4.41548 6.08604 4.44514C6.04746 4.47183 6.01578 4.50731 5.99362 4.54865C5.97417 4.59253 5.96501 4.64026 5.96681 4.68821C5.9654 4.73494 5.97556 4.78129 5.99639 4.82315C6.01638 4.85872 6.04306 4.8901 6.07495 4.91557C6.10918 4.94323 6.14714 4.96594 6.1877 4.98304C6.23021 5.00152 6.27273 5.01816 6.31617 5.03202L6.44463 5.07453C6.48237 5.0887 6.51885 5.10601 6.55369 5.12629C6.58337 5.14127 6.61001 5.16164 6.63225 5.18636C6.65298 5.20899 6.66394 5.23888 6.66275 5.26954C6.66382 5.30167 6.65649 5.33353 6.64149 5.36196C6.62861 5.38701 6.60952 5.40833 6.58604 5.42389C6.56163 5.44025 6.53435 5.45186 6.50563 5.45808C6.47534 5.46528 6.44434 5.469 6.41321 5.46917C6.37735 5.46987 6.34175 5.46294 6.30877 5.44884C6.27753 5.43549 6.24949 5.41564 6.22652 5.39061C6.20209 5.36362 6.18297 5.33226 6.17014 5.29819C6.15546 5.26161 6.14672 5.22293 6.14426 5.18359L5.93262 5.18544ZM4.99639 4.39061V5.61243H5.79029V5.4359H5.20341V4.39061H4.99639ZM4.31339 5.18174L4.59066 5.6115H4.82356L4.428 5.0006L4.82448 4.39061H4.58973L4.31247 4.8213L4.03521 4.39061H3.80415L4.19602 4.99967L3.80045 5.61243H4.03243L4.3097 5.18267L4.31339 5.18174Z" fill="#5F6D7E"/>
<path id="Path 6788" d="M8.71668 8.88224H8.87934V8.29999H6.88026V8.88409H7.12333C7.19496 8.88534 7.26516 8.9044 7.32758 8.93954C7.40463 8.98716 7.46825 9.05364 7.51243 9.13271L8.47638 10.6983L7.50965 12.0893C7.45667 12.1651 7.4083 12.2285 7.36455 12.2797C7.33187 12.3193 7.29465 12.355 7.25365 12.3859C7.22305 12.4084 7.18859 12.425 7.15198 12.4349C7.10207 12.447 7.05082 12.4526 6.99949 12.4516H6.80078V13.0357H8.59745V12.6142L8.57897 12.4525H8.41631C8.33522 12.4581 8.25383 12.4474 8.17694 12.4211C8.17756 12.4004 8.18066 12.3799 8.18618 12.3601C8.19431 12.3303 8.20482 12.3013 8.2176 12.2732C8.23147 12.2408 8.24625 12.2113 8.26289 12.1808C8.27701 12.1547 8.29243 12.1294 8.3091 12.105L8.85439 11.2991L9.43849 12.2381C9.45765 12.2679 9.47523 12.2988 9.49117 12.3305C9.49849 12.3453 9.50437 12.3608 9.50873 12.3767V12.4127C9.50873 12.4127 9.47176 12.4497 9.30263 12.4497H9.11132V13.0338H11.1039V12.4497H10.8627C10.808 12.4473 10.755 12.43 10.7093 12.3998C10.6296 12.3454 10.5607 12.2768 10.506 12.1974L9.42463 10.4599L10.2564 9.2584C10.3025 9.19028 10.3525 9.12486 10.4061 9.06246C10.4421 9.02025 10.482 8.98156 10.5254 8.94694C10.5529 8.92555 10.5843 8.90956 10.6178 8.8998C10.6567 8.88938 10.6968 8.8844 10.737 8.88502H10.9533V8.29999H9.2786V8.72143L9.29708 8.88409H9.45975C9.49743 8.88373 9.5351 8.88589 9.5725 8.89056C9.603 8.89056 9.62056 8.8998 9.6298 8.8998C9.62879 8.93836 9.61933 8.97622 9.60208 9.01071C9.57366 9.07217 9.54027 9.1312 9.50226 9.18723L9.05679 9.86468L8.63165 9.17799C8.60023 9.12808 8.57527 9.08557 8.55864 9.05415C8.54548 9.02927 8.53375 9.00365 8.52352 8.97744C8.51874 8.96547 8.51502 8.95309 8.51243 8.94047C8.51243 8.92753 8.51243 8.91367 8.50226 8.91089C8.51918 8.90265 8.53725 8.89704 8.55586 8.89426C8.60893 8.88483 8.66281 8.8808 8.71668 8.88224Z" fill="#5F6D7E"/>
</g>
</g>
</svg>
