<svg width="16" height="14" viewBox="0 0 16 14" fill="none" xmlns="http://www.w3.org/2000/svg">
<g clip-path="url(#clip0_140_2060)">
<path opacity="0.8" d="M15.3257 7.179L9.39673 13.108C9.25946 13.2452 9.07332 13.3223 8.87923 13.3223C8.68514 13.3223 8.499 13.2452 8.36173 13.108L7.66973 12.416C7.53282 12.2788 7.45593 12.0928 7.45593 11.899C7.45593 11.7052 7.53282 11.5192 7.66973 11.382L12.3697 6.661L7.66973 1.94C7.53282 1.80278 7.45593 1.61684 7.45593 1.423C7.45593 1.22916 7.53282 1.04323 7.66973 0.906002L8.36173 0.214001C8.499 0.0767866 8.68514 -0.000293732 8.87923 -0.000293732C9.07332 -0.000293732 9.25946 0.0767866 9.39673 0.214001L15.3257 6.143C15.3938 6.21099 15.4478 6.29173 15.4847 6.38062C15.5216 6.4695 15.5405 6.56478 15.5405 6.661C15.5405 6.75722 15.5216 6.8525 15.4847 6.94139C15.4478 7.03027 15.3938 7.11101 15.3257 7.179Z" fill="#056A3A"/>
<path opacity="0.4" d="M8.69585 7.179L2.76685 13.108C2.62958 13.2452 2.44344 13.3223 2.24935 13.3223C2.05526 13.3223 1.86912 13.2452 1.73185 13.108L1.03985 12.416C0.902942 12.2788 0.826052 12.0928 0.826052 11.899C0.826052 11.7052 0.902942 11.5192 1.03985 11.382L5.73985 6.661L1.03985 1.94C0.902942 1.80278 0.826052 1.61684 0.826052 1.423C0.826052 1.22916 0.902942 1.04323 1.03985 0.906002L1.73185 0.214001C1.86912 0.0767866 2.05526 -0.000293732 2.24935 -0.000293732C2.44344 -0.000293732 2.62958 0.0767866 2.76685 0.214001L8.69585 6.143C8.76394 6.21099 8.81796 6.29173 8.85482 6.38062C8.89167 6.4695 8.91064 6.56478 8.91064 6.661C8.91064 6.75722 8.89167 6.8525 8.85482 6.94139C8.81796 7.03027 8.76394 7.11101 8.69585 7.179Z" fill="#056A3A"/>
</g>
<defs>
<clipPath id="clip0_140_2060">
<rect width="14.715" height="13.322" fill="white" transform="matrix(-1 0 0 -1 15.5398 13.322)"/>
</clipPath>
</defs>
</svg>
