<svg width="20" height="20" viewBox="0 0 20 20" fill="none" xmlns="http://www.w3.org/2000/svg">
<path d="M4.77515 2.70687C4.77515 2.821 4.86747 2.91363 4.98122 2.91363H18.9606C19.0743 2.91363 19.1667 2.821 19.1667 2.70687C19.1667 2.59275 19.0743 2.50012 18.9606 2.50012H4.98122C4.86747 2.50012 4.77515 2.59275 4.77515 2.70687Z" fill="#5F6D7E" stroke="#5F6D7E" stroke-width="0.7"/>
<path d="M1.1877 2.55546C1.10527 2.48103 0.973384 2.48103 0.890953 2.55546C0.849738 2.59763 0.833252 2.65552 0.833252 2.70515C0.833252 2.76221 0.857981 2.81266 0.890953 2.85401C0.932168 2.89536 0.981627 2.9119 1.03933 2.9119C1.09703 2.9119 1.14649 2.89453 1.17946 2.85401C1.22067 2.81266 1.2454 2.76304 1.2454 2.70515C1.2454 2.65552 1.22067 2.59763 1.1877 2.55546Z" fill="#5F6D7E" stroke="#5F6D7E" stroke-width="0.7"/>
<path d="M4.98122 10.2227H12.6101C12.7239 10.2227 12.8162 10.1301 12.8162 10.016C12.8162 9.90183 12.7239 9.8092 12.6101 9.8092H4.98122C4.86747 9.8092 4.77515 9.90183 4.77515 10.016C4.77515 10.1301 4.86747 10.2227 4.98122 10.2227Z" fill="#5F6D7E" stroke="#5F6D7E" stroke-width="0.7"/>
<path d="M1.1877 9.86632C1.16297 9.84978 1.13824 9.83406 1.11352 9.82497C1.03933 9.79189 0.948654 9.80842 0.890953 9.86632C0.849738 9.90849 0.833252 9.95811 0.833252 10.016C0.833252 10.0731 0.857981 10.1235 0.890953 10.1649C0.932168 10.1979 0.981627 10.2228 1.03933 10.2228C1.09703 10.2228 1.14649 10.1979 1.1877 10.1649C1.22067 10.1235 1.2454 10.0739 1.2454 10.016C1.2454 9.95811 1.22067 9.90849 1.1877 9.86632Z" fill="#5F6D7E" stroke="#5F6D7E" stroke-width="0.7"/>
<path d="M4.98122 17.5318H18.9606C19.0743 17.5318 19.1667 17.4392 19.1667 17.325C19.1667 17.2109 19.0743 17.1183 18.9606 17.1183H4.98122C4.86747 17.1183 4.77515 17.2109 4.77515 17.325C4.77515 17.4392 4.86747 17.5318 4.98122 17.5318Z" fill="#5F6D7E" stroke="#5F6D7E" stroke-width="0.7"/>
<path d="M0.890953 17.1779C0.857981 17.2192 0.833252 17.268 0.833252 17.3267C0.833252 17.3516 0.833252 17.3764 0.849738 17.4012C0.857981 17.426 0.874467 17.4516 0.890953 17.4673C0.932168 17.5087 0.981627 17.5335 1.03933 17.5335C1.06406 17.5335 1.08879 17.5252 1.11352 17.5161C1.13824 17.5079 1.16297 17.4921 1.1877 17.4665C1.20419 17.45 1.22067 17.4252 1.22892 17.4003C1.23716 17.3755 1.2454 17.3507 1.2454 17.3259C1.2454 17.268 1.22067 17.2184 1.1877 17.1771C1.10527 17.1026 0.96514 17.1026 0.890953 17.1779Z" fill="#5F6D7E" stroke="#5F6D7E" stroke-width="0.7"/>
</svg>