<svg width="23" height="22" viewBox="0 0 23 22" fill="none" xmlns="http://www.w3.org/2000/svg">
<path d="M9.10836 0.916657L14.6084 0.916656C17.1753 0.916656 18.4587 0.916656 19.4391 1.41621C20.3016 1.85563 21.0027 2.55679 21.4421 3.4192C21.9417 4.39963 21.9417 5.68308 21.9417 8.24999V13.75C21.9417 16.3169 21.9417 17.6004 21.4421 18.5808C21.0027 19.4432 20.3016 20.1443 19.4391 20.5838C18.4587 21.0833 17.1753 21.0833 14.6084 21.0833H9.10836M9.10836 0.916657C6.54145 0.916657 5.258 0.916657 4.27757 1.41621C3.41516 1.85563 2.714 2.55679 2.27458 3.4192C1.77502 4.39963 1.77502 5.68308 1.77502 8.24999L1.77502 13.75C1.77502 16.3169 1.77502 17.6004 2.27458 18.5808C2.714 19.4432 3.41516 20.1443 4.27757 20.5838C5.258 21.0833 6.54145 21.0833 9.10836 21.0833M9.10836 0.916657L9.10836 21.0833M9.10836 11L22.8584 11" stroke="#5F6D7E" stroke-width="1.67" stroke-linecap="round"/>
</svg>
