<svg width="65" height="51" viewBox="0 0 65 51" fill="none" xmlns="http://www.w3.org/2000/svg">
<path d="M32.9082 24.8459C35.4849 22.8367 37.5899 23.1499 39.3992 24.8459L39.4696 37.8583C39.4766 38.8629 39.2021 39.8616 38.6107 40.7066C37.618 42.1367 36.2523 43.2831 34.4922 44.1281C33.6122 44.5477 32.6407 44.7722 31.655 44.7722C28.2195 44.7722 18.7857 44.7722 16.6455 44.7722C16.3568 44.7722 16.0682 44.7309 15.7936 44.6304C13.1536 43.6849 11.4006 42.0598 10.3023 39.9443C10.253 39.8438 10.2249 39.7316 10.2249 39.6252V10.4625C10.2249 9.93654 10.2741 9.41061 10.422 8.9024C10.9711 6.99368 12.3017 5.51043 14.1462 4.30492C14.7094 3.93263 15.3853 3.74353 16.0752 3.74353H32.9082C34.978 3.74353 37.3505 4.54129 38.491 6.49729C38.6741 6.81049 38.7656 7.15914 38.7726 7.5137L38.8923 16.9391C37.1463 18.381 34.6753 18.4697 32.352 17.0101L32.2816 11.1657C32.2816 11.0061 32.2535 10.8407 32.1971 10.687C31.8381 9.72971 31.296 9.05014 30.4582 8.80785C30.3737 8.78422 30.2822 8.7724 30.1907 8.7724L18.8913 8.74876C18.6449 8.74876 18.3985 8.81967 18.2084 8.9615C17.1664 9.74153 16.5258 10.8052 16.2864 12.1644C16.2442 12.4185 16.2301 12.6844 16.2301 12.9444L16.2583 37.8996C16.2583 37.9942 16.2794 38.0947 16.3287 38.1774C16.7511 38.9515 17.2791 39.4715 17.9127 39.7375C18.0042 39.7788 18.1098 39.7906 18.2154 39.7906L31.5142 39.767C32.2323 39.5484 32.6688 39.1938 32.8307 38.7033L32.9082 24.8459Z" fill="#056A3A"/>
<path d="M24.8473 29.9396C27.5418 29.9396 29.7261 28.1061 29.7261 25.8444C29.7261 23.5827 27.5418 21.7492 24.8473 21.7492C22.1528 21.7492 19.9685 23.5827 19.9685 25.8444C19.9685 28.1061 22.1528 29.9396 24.8473 29.9396Z" fill="#93B722"/>
</svg>
