<svg width="167" height="32" viewBox="0 0 167 32" fill="none" xmlns="http://www.w3.org/2000/svg">
<g clip-path="url(#clip0_140_2228)">
<path d="M15.4088 16.1264C17.0616 14.591 18.4119 14.8304 19.5725 16.1264L19.6176 26.0706C19.6222 26.8383 19.446 27.6015 19.0667 28.2472C18.4299 29.3401 17.5539 30.2162 16.4249 30.862C15.8604 31.1826 15.2372 31.3542 14.6049 31.3542C12.4012 31.3542 6.34979 31.3542 4.97694 31.3542C4.79179 31.3542 4.60663 31.3226 4.43051 31.2458C2.73703 30.5233 1.61256 29.2814 0.908074 27.6647C0.876462 27.5879 0.858398 27.5021 0.858398 27.4208V5.13463C0.858398 4.73271 0.89001 4.33079 0.984845 3.94242C1.33709 2.48377 2.1906 1.35027 3.37378 0.429015C3.73506 0.14451 4.16859 0 4.61115 0H15.4088C16.7365 0 18.2583 0.609653 18.9899 2.10443C19.1073 2.34378 19.166 2.61022 19.1706 2.88117L19.2473 10.0841C18.1274 11.186 16.5423 11.2537 15.052 10.1383L15.0069 5.67203C15.0069 5.5501 14.9888 5.42365 14.9527 5.30624C14.7224 4.57465 14.3746 4.05532 13.8372 3.87017C13.783 3.8521 13.7243 3.84307 13.6656 3.84307L6.41753 3.82501C6.25947 3.82501 6.10141 3.8792 5.97948 3.98758C5.31112 4.58369 4.90017 5.39656 4.74663 6.43522C4.71953 6.62941 4.7105 6.83263 4.7105 7.03133L4.72856 26.1022C4.72856 26.1744 4.74211 26.2512 4.77372 26.3144C5.04468 26.906 5.38338 27.3034 5.78981 27.5066C5.84852 27.5382 5.91626 27.5473 5.984 27.5473L14.5146 27.5292C14.9752 27.3621 15.2552 27.0912 15.3591 26.7163L15.4088 16.1264Z" fill="#056A3A"/>
<path d="M10.2381 20.0192C11.9665 20.0192 13.3676 18.6181 13.3676 16.8897C13.3676 15.1613 11.9665 13.7601 10.2381 13.7601C8.50967 13.7601 7.10852 15.1613 7.10852 16.8897C7.10852 18.6181 8.50967 20.0192 10.2381 20.0192Z" fill="#93B722"/>
<path d="M24.5851 31.702H25.7232C26.3102 31.702 26.8657 31.3542 26.9876 30.8349C27.0012 30.7852 27.0057 30.7355 27.0147 30.6814L27.0012 16.8535C27.0012 16.8219 26.9967 16.7858 26.9967 16.7542C26.9831 16.0677 27.5973 15.5078 28.3514 15.5078H32.9758C33.7299 15.5078 34.3712 15.002 34.4751 14.3246L34.4796 14.293C34.6331 13.2904 33.8473 12.4731 32.7319 12.4731H26.8476C26.7302 12.4731 26.6083 12.4821 26.4954 12.5001C24.9645 12.7485 23.9484 13.5433 23.42 14.862C23.3342 15.0697 23.3026 15.291 23.3026 15.5123V30.4601C23.3026 30.5955 23.3207 30.7355 23.3794 30.862C23.4426 31.0065 23.5149 31.1375 23.6052 31.2594C23.8129 31.5439 24.1968 31.702 24.5851 31.702Z" fill="#056A3A"/>
<path d="M42.3238 20.5476C42.0032 20.5114 41.7142 20.5566 41.6238 20.8908V22.5572C41.6464 22.8733 41.8135 23.1307 42.3238 23.2481H51.2473H51.2654C51.866 23.2346 52.3447 22.7694 52.3447 22.2049V15.6974C52.3447 15.3226 52.2363 14.9478 52.015 14.6362C51.1389 13.4033 49.8654 12.6988 48.2171 12.4911C48.1042 12.4776 47.9913 12.4731 47.8784 12.4731H40.1697C39.9575 12.4731 39.7452 12.4911 39.542 12.5453C37.9117 12.9608 36.7782 13.8911 36.1324 15.3316C36.006 15.6116 35.9428 15.9142 35.9428 16.2168C35.9383 17.8651 35.9247 24.0655 35.9157 26.7344C35.9112 28.035 36.435 29.313 37.4466 30.1936C37.7717 30.4736 38.1285 30.713 38.5214 30.9071C39.1536 31.2142 39.8671 31.3452 40.5807 31.3452L48.3978 31.2278C48.479 31.2278 48.5648 31.2187 48.6461 31.2007C50.746 30.7581 51.717 29.7285 51.9654 27.9989L51.9744 26.3144C51.9789 25.4835 51.4189 24.6119 50.5067 24.5893C50.439 24.5893 50.3712 24.5803 50.3035 24.5713C49.8022 24.5126 49.1384 24.77 48.8629 25.6596C48.7952 25.8764 48.7635 26.1022 48.7545 26.328V26.346C48.6732 26.9783 48.5919 27.4479 48.2623 27.904C48.0952 28.1344 47.9055 28.3285 47.6842 28.4866C47.4991 28.6176 47.2733 28.6808 47.043 28.6808L41.1135 28.6537C40.9464 28.6537 40.7748 28.6176 40.6303 28.5408C40.1787 28.2924 39.8626 27.9808 39.6368 27.6241C39.5239 27.4434 39.4697 27.2357 39.4697 27.0279L39.4968 17.4632C39.4968 17.2283 39.533 16.998 39.6097 16.7722C39.7723 16.2981 40.0252 15.8871 40.3819 15.5529C40.6394 15.3136 40.9826 15.1781 41.3438 15.1781C42.5361 15.1736 45.7063 15.1691 46.8578 15.1646C47.183 15.1646 47.4991 15.2684 47.7565 15.4536C48.3436 15.8781 48.7184 16.4381 48.759 17.2148V19.974C48.759 20.2811 48.4926 20.534 48.1674 20.534L42.3238 20.5476Z" fill="#056A3A"/>
<path d="M68.0512 27.1905C68.0557 26.8383 68.0964 26.4906 68.1776 26.1473C68.3041 25.6099 68.435 25.3119 68.7918 24.9371L68.7963 24.9325C69.4015 24.499 70.2595 24.5351 70.8285 24.9325H70.833C70.8601 24.9551 70.8872 24.9867 70.9143 25.0138C71.1311 25.2667 71.2259 25.5964 71.2259 25.9261V28.1253C71.2259 28.4776 71.1356 28.8298 70.9414 29.1279C70.3453 30.0536 69.4421 30.731 68.2363 31.16C67.9202 31.2729 67.5861 31.3271 67.2519 31.3271H59.5522C59.3715 31.3271 59.1864 31.3046 59.0193 31.2458C57.6148 30.7717 56.5897 29.7872 55.9078 28.3331C55.7949 28.0937 55.7498 27.8318 55.7498 27.5699L55.7407 16.2303C55.7407 15.9232 55.7949 15.6116 55.9078 15.3226C56.4904 13.8324 57.669 12.9201 59.3761 12.5137C59.5161 12.4821 59.656 12.4685 59.796 12.4685C61.0153 12.4685 67.1164 12.4685 68.1867 12.4685C68.2951 12.4685 68.4034 12.4776 68.5073 12.5001C69.4782 12.6988 70.264 13.2137 70.8827 14.004C71.1085 14.293 71.2214 14.6497 71.2214 15.011V22.3314C71.2214 22.6068 71.0949 22.8688 70.8782 23.0494C70.7156 23.1849 70.4943 23.2436 70.2776 23.2436L61.7876 23.2526C61.7469 23.2526 61.7018 23.2436 61.6611 23.23C61.3857 23.1217 61.1915 22.932 61.0741 22.6701C61.0379 22.5933 61.0244 22.5075 61.0244 22.4217V21.234C61.0831 20.8592 61.3315 20.6424 61.7108 20.534H67.6267C67.8615 20.534 68.0467 20.3534 68.0467 20.1276L68.0376 16.7226C68.0376 16.5871 68.0196 16.4471 67.9699 16.3206C67.8028 15.8916 67.5364 15.5484 67.1616 15.291C67.0487 15.2142 66.9041 15.1781 66.7641 15.1781L60.2025 15.1465C60.0309 15.1465 59.8638 15.2142 59.7419 15.3316C59.5386 15.5258 59.3986 15.7516 59.3083 16C59.2677 16.1084 59.2586 16.2258 59.2586 16.3432L59.2677 27.4931C59.2677 27.5653 59.2812 27.6421 59.3174 27.7053C59.5206 28.0937 59.9089 28.3918 60.4825 28.586C60.6089 28.6311 60.7399 28.6447 60.8708 28.6447L66.1861 28.6537C66.2313 28.6537 66.2809 28.6492 66.3216 28.6401C67.0261 28.5137 67.5364 28.2698 67.848 27.904C67.9699 27.764 68.0286 27.5834 68.0331 27.3983L68.0512 27.1905Z" fill="#056A3A"/>
<path d="M75.9812 31.8465C76.9115 32.0677 77.8237 32.0361 78.6863 31.8374C79.0792 31.7471 79.3637 31.4039 79.3637 31.002L79.3004 17.1967C79.5443 16.3929 80.2849 15.8374 81.1249 15.8374H85.5866C86.3544 15.8374 87.0047 16.411 87.095 17.1742V30.8755C87.095 31.3497 87.4337 31.7561 87.8988 31.851C88.7252 32.0181 89.5471 32.0497 90.36 31.8826C90.8297 31.7878 91.1684 31.3723 91.1684 30.8936V15.8645C91.1684 15.3587 91.069 14.853 90.8387 14.4059C90.7348 14.2072 90.6174 14.0175 90.4864 13.8414C89.8316 12.9608 88.7614 12.4776 87.6595 12.4776H79.2553C78.8398 12.4776 78.4198 12.5272 78.0224 12.6537C77.4896 12.8298 77.0154 13.0692 76.6135 13.3808C75.778 14.0311 75.3309 15.0652 75.3309 16.1265V31.0065C75.34 31.3994 75.6019 31.7516 75.9812 31.8465Z" fill="#056A3A"/>
<path d="M94.5417 31.8465C95.4719 32.0677 96.3842 32.0361 97.2467 31.8374C97.6396 31.7471 97.9241 31.4039 97.9241 31.002L97.8609 17.1967C98.1047 16.3929 98.8454 15.8374 99.6853 15.8374H104.147C104.915 15.8374 105.565 16.411 105.655 17.1742V30.8755C105.655 31.3497 105.994 31.7561 106.459 31.851C107.286 32.0181 108.108 32.0497 108.92 31.8826C109.39 31.7878 109.729 31.3723 109.729 30.8936V15.8645C109.729 15.3587 109.629 14.853 109.399 14.4059C109.295 14.2072 109.178 14.0175 109.047 13.8414C108.392 12.9608 107.322 12.4776 106.22 12.4776H97.8157C97.4002 12.4776 96.9803 12.5272 96.5829 12.6537C96.05 12.8298 95.5758 13.0692 95.1739 13.3808C94.3384 14.0311 93.8914 15.0652 93.8914 16.1265V31.0065C93.9004 31.3994 94.1623 31.7516 94.5417 31.8465Z" fill="#056A3A"/>
<path d="M129.211 14.6678C128.624 13.8414 128 13.1685 127.318 12.6988C126.957 12.4505 126.537 12.306 126.104 12.2608C124.541 12.0982 120.685 11.9086 118.521 12.2156C118.128 12.2698 117.754 12.4098 117.41 12.6085C117.316 12.6627 117.225 12.7214 117.135 12.7801C115.437 13.864 114.443 15.7697 114.443 17.7883V27.2944C114.443 27.7234 114.511 28.1569 114.665 28.5589C115.098 29.6878 115.97 30.5323 117.23 31.1239C117.799 31.3903 118.418 31.5439 119.05 31.5755C121.163 31.6929 123.426 31.6839 125.824 31.5665C126.492 31.5349 127.147 31.3362 127.711 30.9749C128.38 30.5413 128.913 29.9769 129.305 29.2814C129.707 28.5679 129.897 27.7505 129.897 26.9286V16.858C129.897 16.0723 129.662 15.3045 129.211 14.6678ZM126.217 27.2628C126.113 27.755 125.747 28.1434 125.011 28.3827C123.209 28.7576 121.299 28.7756 119.267 28.3827C118.535 28.1253 118.079 27.6918 118.119 26.9467V17.3999C118.119 16.5961 118.539 15.8329 119.253 15.4626C119.257 15.4581 119.262 15.4581 119.267 15.4536C120.666 15.2684 122.387 15.2684 124.365 15.4129C124.808 15.4445 125.241 15.6071 125.58 15.8871C126.013 16.2484 126.244 16.6955 126.217 17.26V27.2628Z" fill="#056A3A"/>
<path d="M134.016 11.895C134.305 11.9853 134.53 12.2111 134.621 12.4866L139.701 27.6331C139.76 27.8047 139.922 27.9176 140.112 27.9176C140.279 27.9176 140.433 27.8137 140.482 27.6557L145.504 12.5137C145.604 12.2111 145.879 11.9898 146.209 11.9447C146.99 11.8363 147.816 11.9673 148.476 12.5092C148.733 12.7214 148.832 13.0556 148.729 13.3672L142.632 31.3271C142.578 31.4852 142.424 31.5936 142.253 31.5936H138.513C138.279 31.5936 138.071 31.4491 137.99 31.2368L131.432 13.3672C131.351 13.1459 131.356 12.9021 131.46 12.6898C131.889 11.8318 132.733 11.4931 134.016 11.895Z" fill="#056A3A"/>
<path d="M151.443 18.7412C152.115 18.8405 152.815 18.7863 153.538 18.6057C154.035 18.4838 154.392 18.0367 154.392 17.5264V16.0181C154.423 15.3452 154.658 14.88 155.123 14.6452H160.98C161.581 14.8529 161.965 15.2639 162.114 15.8961V19.5631C162.114 19.8431 161.888 20.0689 161.608 20.0689H153.944C153.791 20.0689 153.637 20.0869 153.493 20.1321C151.786 20.6559 150.58 21.7623 149.862 23.4513C149.708 23.8126 149.632 24.2055 149.632 24.6029V27.4208C149.632 27.7234 149.677 28.0214 149.763 28.3105C150.35 30.2975 151.488 31.3858 153.326 31.3316H159.585C159.937 31.3316 160.253 31.1149 160.389 30.7852C160.619 30.2343 160.624 29.6788 160.411 29.1188C160.271 28.744 159.901 28.5001 159.499 28.5092L154.486 28.5905C153.868 28.2382 153.57 27.8363 153.443 27.3982L153.326 25.0454C153.357 24.2461 153.646 23.6003 154.22 23.1262C154.333 23.0313 154.477 22.9907 154.622 22.9907H161.712C161.933 22.9907 162.114 23.1713 162.114 23.3926V29.8865C162.114 30.4871 162.471 31.0426 163.026 31.2684C163.744 31.5574 164.458 31.5574 165.176 31.2684C165.704 31.0562 166.052 30.5323 166.052 29.9633V15.9413C166.052 15.2278 165.853 14.5188 165.429 13.9407C164.878 13.1866 164.173 12.5679 163.301 12.1027C162.841 11.8589 162.326 11.7279 161.807 11.7279H155.231C153.981 11.7279 152.748 12.1118 151.768 12.893C151.384 13.2001 151.032 13.5614 150.707 13.9633C150.404 14.3426 150.255 14.8168 150.246 15.3L150.214 17.287C150.196 18.0141 150.729 18.6328 151.443 18.7412Z" fill="#056A3A"/>
</g>
<defs>
<clipPath id="clip0_140_2228">
<rect width="165.189" height="32" fill="white" transform="translate(0.858398)"/>
</clipPath>
</defs>
</svg>
