<svg width="25" height="24" viewBox="0 0 25 24" fill="none" xmlns="http://www.w3.org/2000/svg">
<path d="M17.2642 7C17.2642 7.46116 16.8904 7.835 16.4292 7.835C15.968 7.835 15.5942 7.46116 15.5942 7H17.2642ZM15.5942 17C15.5942 16.5388 15.968 16.165 16.4292 16.165C16.8904 16.165 17.2642 16.5388 17.2642 17H15.5942ZM15.3372 21.782L14.9581 21.038L14.9581 21.038L15.3372 21.782ZM16.2112 20.908L16.9552 21.2871H16.9552L16.2112 20.908ZM4.64719 20.908L3.9032 21.2871L4.64719 20.908ZM5.52122 21.782L5.9003 21.038L5.9003 21.038L5.52122 21.782ZM5.52122 2.21799L5.9003 2.96198L5.9003 2.96198L5.52122 2.21799ZM4.64719 3.09202L5.39118 3.4711L5.39118 3.4711L4.64719 3.09202ZM16.2112 3.09202L16.9552 2.71294V2.71294L16.2112 3.09202ZM15.3372 2.21799L15.7163 1.474V1.474L15.3372 2.21799ZM9.4292 12.835C8.96804 12.835 8.5942 12.4612 8.5942 12C8.5942 11.5388 8.96804 11.165 9.4292 11.165V12.835ZM20.4292 11.165C20.8904 11.165 21.2642 11.5388 21.2642 12C21.2642 12.4612 20.8904 12.835 20.4292 12.835L20.4292 11.165ZM12.0196 14.4096C12.3457 14.7357 12.3457 15.2643 12.0196 15.5904C11.6935 15.9165 11.1649 15.9165 10.8388 15.5904L12.0196 14.4096ZM9.56057 13.1314L8.97014 13.7218L9.56057 13.1314ZM9.56057 10.8686L8.97013 10.2782L8.97014 10.2782L9.56057 10.8686ZM10.8388 8.40956C11.1649 8.08348 11.6935 8.08348 12.0196 8.40956C12.3457 8.73565 12.3457 9.26435 12.0196 9.59043L10.8388 8.40956ZM8.89236 12.309L9.68649 12.051L8.89236 12.309ZM8.89236 11.691L9.68649 11.949L8.89236 11.691ZM15.5942 7V5.2H17.2642V7H15.5942ZM13.2292 2.835H7.6292V1.165H13.2292V2.835ZM5.2642 5.2V18.8H3.5942V5.2H5.2642ZM7.6292 21.165H13.2292V22.835H7.6292V21.165ZM15.5942 18.8V17H17.2642V18.8H15.5942ZM13.2292 21.165C13.803 21.165 14.1832 21.1644 14.4748 21.1405C14.7567 21.1175 14.8815 21.077 14.9581 21.038L15.7163 22.526C15.365 22.705 14.9959 22.7735 14.6108 22.805C14.2354 22.8356 13.7755 22.835 13.2292 22.835V21.165ZM17.2642 18.8C17.2642 19.3463 17.2648 19.8062 17.2342 20.1816C17.2027 20.5667 17.1342 20.9358 16.9552 21.2871L15.4672 20.5289C15.5062 20.4523 15.5467 20.3275 15.5697 20.0456C15.5935 19.754 15.5942 19.3738 15.5942 18.8H17.2642ZM14.9581 21.038C15.1773 20.9263 15.3555 20.7481 15.4672 20.5289L16.9552 21.2871C16.6834 21.8205 16.2497 22.2542 15.7163 22.526L14.9581 21.038ZM5.2642 18.8C5.2642 19.3738 5.26485 19.754 5.28867 20.0456C5.3117 20.3275 5.35216 20.4523 5.39118 20.5289L3.9032 21.2871C3.72423 20.9358 3.65569 20.5667 3.62422 20.1816C3.59355 19.8062 3.5942 19.3463 3.5942 18.8H5.2642ZM7.6292 22.835C7.08292 22.835 6.623 22.8356 6.24761 22.805C5.86247 22.7735 5.49338 22.705 5.14214 22.526L5.9003 21.038C5.97688 21.077 6.10173 21.1175 6.3836 21.1405C6.67521 21.1644 7.05537 21.165 7.6292 21.165V22.835ZM5.39118 20.5289C5.50287 20.7481 5.68109 20.9263 5.9003 21.038L5.14214 22.526C4.6087 22.2542 4.175 21.8205 3.9032 21.2871L5.39118 20.5289ZM7.6292 2.835C7.05537 2.835 6.67521 2.83565 6.3836 2.85948C6.10173 2.8825 5.97688 2.92296 5.9003 2.96198L5.14214 1.474C5.49338 1.29503 5.86247 1.22649 6.24761 1.19502C6.623 1.16435 7.08292 1.165 7.6292 1.165V2.835ZM3.5942 5.2C3.5942 4.65373 3.59355 4.1938 3.62422 3.81841C3.65569 3.43327 3.72423 3.06418 3.9032 2.71294L5.39118 3.4711C5.35216 3.54768 5.3117 3.67253 5.28867 3.9544C5.26485 4.24601 5.2642 4.62617 5.2642 5.2H3.5942ZM5.9003 2.96198C5.68109 3.07367 5.50287 3.25189 5.39118 3.4711L3.9032 2.71294C4.175 2.1795 4.6087 1.7458 5.14214 1.474L5.9003 2.96198ZM15.5942 5.2C15.5942 4.62617 15.5935 4.24601 15.5697 3.9544C15.5467 3.67253 15.5062 3.54768 15.4672 3.4711L16.9552 2.71294C17.1342 3.06418 17.2027 3.43327 17.2342 3.81841C17.2648 4.1938 17.2642 4.65373 17.2642 5.2H15.5942ZM13.2292 1.165C13.7755 1.165 14.2354 1.16435 14.6108 1.19502C14.9959 1.22649 15.365 1.29503 15.7163 1.474L14.9581 2.96198C14.8815 2.92296 14.7567 2.8825 14.4748 2.85948C14.1832 2.83565 13.803 2.835 13.2292 2.835V1.165ZM15.4672 3.4711C15.3555 3.25189 15.1773 3.07367 14.9581 2.96198L15.7163 1.474C16.2497 1.7458 16.6834 2.1795 16.9552 2.71294L15.4672 3.4711ZM9.4292 11.165L20.4292 11.165L20.4292 12.835L9.4292 12.835V11.165ZM10.8388 15.5904L8.97014 13.7218L10.151 12.5409L12.0196 14.4096L10.8388 15.5904ZM8.97014 10.2782L10.8388 8.40956L12.0196 9.59043L10.151 11.4591L8.97014 10.2782ZM8.97014 13.7218C8.78187 13.5335 8.6047 13.3573 8.46923 13.1977C8.32742 13.0307 8.18295 12.8278 8.09823 12.567L9.68649 12.051C9.67596 12.0186 9.66758 12.0289 9.74233 12.1169C9.82341 12.2124 9.94325 12.3332 10.151 12.5409L8.97014 13.7218ZM10.151 11.4591C9.94326 11.6668 9.82341 11.7876 9.74234 11.8831C9.66758 11.9711 9.67595 11.9814 9.68649 11.949L8.09823 11.433C8.18295 11.1722 8.32742 10.9693 8.46923 10.8023C8.6047 10.6427 8.78187 10.4665 8.97013 10.2782L10.151 11.4591ZM8.09823 12.567C7.97848 12.1985 7.97848 11.8015 8.09823 11.433L9.68649 11.949C9.67572 11.9822 9.67572 12.0179 9.68649 12.051L8.09823 12.567Z" fill="#5F6D7E"/>
</svg>
