<svg width="20" height="20" viewBox="0 0 20 20" fill="none" xmlns="http://www.w3.org/2000/svg">
<path d="M4.0569 15.9435C4.09483 15.9814 4.14438 16 4.19392 16C4.24347 16 4.29301 15.9814 4.33095 15.9435L10 10.2742L15.6691 15.9435C15.707 15.9814 15.7565 16 15.8061 16C15.8556 16 15.9052 15.9814 15.9431 15.9435C16.019 15.8676 16.019 15.7453 15.9431 15.6694L10.274 10.0002L15.9431 4.33096C16.019 4.25509 16.019 4.13277 15.9431 4.0569C15.8672 3.98103 15.7449 3.98103 15.6691 4.0569L10 9.72614L4.33095 4.0569C4.25508 3.98103 4.13277 3.98103 4.0569 4.0569C3.98103 4.13277 3.98103 4.25509 4.0569 4.33096L9.72595 10.0002L4.0569 15.6694C3.98181 15.7453 3.98181 15.8676 4.0569 15.9435Z" fill="#5F6D7E" stroke="#5F6D7E"/>
</svg>
