<svg width="41" height="40" viewBox="0 0 41 40" fill="none" xmlns="http://www.w3.org/2000/svg">
<rect x="0.429199" width="40" height="40" rx="10" fill="#93B722" fill-opacity="0.1"/>
<path fill-rule="evenodd" clip-rule="evenodd" d="M15.2039 16.8149C15.2039 14.4717 16.7453 12.4831 18.8679 11.8095C19.6089 11.6023 20.4071 11.5437 21.2507 11.6492L21.2534 11.6495C21.5008 11.6795 21.7453 11.7295 21.9878 11.7952C24.1323 12.456 25.7039 14.4621 25.7039 16.8149V19.7049C25.7039 20.1001 25.7853 20.5556 25.8981 20.967C26.0112 21.3793 26.1722 21.8068 26.3643 22.1397L26.3641 22.1398L26.3714 22.1518L27.5208 24.0608L27.5211 24.0613C27.9348 24.7517 27.5992 25.6446 26.8485 25.8928L26.8462 25.8936C25.1205 26.4702 23.3382 26.8073 21.5464 26.905H19.3513C17.56 26.8074 15.7783 26.4704 14.053 25.8941C13.5962 25.7391 13.3334 25.4539 13.2234 25.157C13.1138 24.8608 13.1275 24.4755 13.3764 24.0618L13.3765 24.0616L14.5264 22.1518L14.5264 22.1518L14.5281 22.149C14.7284 21.813 14.8931 21.3825 15.0078 20.9693C15.1224 20.5563 15.2039 20.1003 15.2039 19.7049V16.8149ZM16.6162 28.0931C15.5905 27.9088 14.5745 27.6498 13.5762 27.3163L13.5734 27.3153C12.731 27.0302 12.0992 26.4407 11.8168 25.6779C11.534 24.9141 11.6302 24.0545 12.0912 23.2883L12.0913 23.2881L13.2397 21.3809L13.2404 21.3796C13.3499 21.1955 13.4699 20.9016 13.5624 20.5681C13.6553 20.2336 13.7039 19.9196 13.7039 19.7049V16.8149C13.7039 13.9333 15.5154 11.4699 18.0603 10.5027C18.5277 9.66124 19.4254 9.09497 20.4537 9.09497C21.4833 9.09497 22.382 9.66272 22.8489 10.5059C25.389 11.4769 27.2039 13.9431 27.2039 16.8149V19.7049C27.2039 19.9198 27.2525 20.2343 27.3447 20.5703C27.4357 20.9023 27.5533 21.1973 27.6604 21.3847L28.8064 23.2881L28.807 23.2891C29.7126 24.7983 28.9887 26.7644 27.3204 27.3167C26.3125 27.6534 25.2866 27.914 24.2508 28.0987C23.74 29.7204 22.2185 30.905 20.4338 30.905C19.3404 30.905 18.3271 30.4517 17.6071 29.7317C17.1579 29.2824 16.8124 28.719 16.6162 28.0931Z" fill="#056A3A"/>
</svg>
