<svg width="25" height="24" viewBox="0 0 25 24" fill="none" xmlns="http://www.w3.org/2000/svg">
<path d="M19.9326 18.0121L20.7427 17.8096V17.8096L19.9326 18.0121ZM19.7326 17.2121L18.9226 17.4146L18.9226 17.4146L19.7326 17.2121ZM5.12667 17.2121L4.3166 17.0096H4.3166L5.12667 17.2121ZM4.92667 18.0121L5.73674 18.2146L4.92667 18.0121ZM5.8231 16.0782L5.49967 15.3084H5.49967L5.8231 16.0782ZM5.40997 16.4008L6.07836 16.9012L5.40997 16.4008ZM19.4493 16.4008L18.781 16.9012L18.781 16.9012L19.4493 16.4008ZM19.0362 16.0782L19.3597 15.3084H19.3597L19.0362 16.0782ZM19.6671 19.8554L19.2344 19.1412L19.6671 19.8554ZM20.1043 19.2954L20.9021 19.542V19.542L20.1043 19.2954ZM5.19225 19.8554L5.62493 19.1412H5.62493L5.19225 19.8554ZM4.75503 19.2954L5.55279 19.0489H5.55279L4.75503 19.2954ZM11.7141 3.3579L11.3407 2.61105L11.3407 2.61105L11.7141 3.3579ZM5.86074 6.28459L6.23417 7.03144H6.23417L5.86074 6.28459ZM5.1452 8.43121L4.39835 8.80464H4.39835L5.1452 8.43121ZM5.3191 8.77902L6.06595 8.40559L6.06595 8.40559L5.3191 8.77902ZM19.5402 8.77902L18.7934 8.40559V8.40559L19.5402 8.77902ZM19.7141 8.43121L18.9673 8.05779L18.9673 8.05779L19.7141 8.43121ZM18.9986 6.28459L19.372 5.53774V5.53774L18.9986 6.28459ZM13.1452 3.3579L13.5186 2.61105L13.1452 3.3579ZM20.088 7.43975L20.923 7.43341L20.088 7.43975ZM19.8926 6.85343L19.2208 7.34935L19.2208 7.34935L19.8926 6.85343ZM4.96677 6.85343L4.29498 6.35752L4.29498 6.35752L4.96677 6.85343ZM4.77133 7.43975L3.93635 7.43341L4.77133 7.43975ZM19.3567 8.98647L19.0844 8.1971L19.0844 8.1971L19.3567 8.98647ZM19.4501 8.92873L20.0343 9.52528L20.0343 9.52527L19.4501 8.92873ZM5.50265 8.98647L5.77492 8.1971H5.77492L5.50265 8.98647ZM5.40924 8.92873L4.82497 9.52527L4.82498 9.52528L5.40924 8.92873ZM12.2453 3.13531L12.0913 2.31463L12.2453 3.13531ZM12.6141 3.13531L12.768 2.31463L12.6141 3.13531ZM6.59466 15.0001C6.59466 15.4613 6.9685 15.8351 7.42966 15.8351C7.89082 15.8351 8.26466 15.4613 8.26466 15.0001H6.59466ZM8.26466 9.00013C8.26466 8.53897 7.89082 8.16513 7.42966 8.16513C6.9685 8.16513 6.59466 8.53897 6.59466 9.00013H8.26466ZM11.5947 15.0001C11.5947 15.4613 11.9685 15.8351 12.4297 15.8351C12.8908 15.8351 13.2647 15.4613 13.2647 15.0001H11.5947ZM13.2647 10.0001C13.2647 9.53897 12.8908 9.16513 12.4297 9.16513C11.9685 9.16513 11.5947 9.53897 11.5947 10.0001H13.2647ZM16.5947 15.0001C16.5947 15.4613 16.9685 15.8351 17.4297 15.8351C17.8908 15.8351 18.2647 15.4613 18.2647 15.0001H16.5947ZM18.2647 10.0001C18.2647 9.53897 17.8908 9.16513 17.4297 9.16513C16.9685 9.16513 16.5947 9.53897 16.5947 10.0001H18.2647ZM6.4789 20.8351H18.3804V19.1651H6.4789V20.8351ZM20.7427 17.8096L20.5427 17.0096L18.9226 17.4146L19.1226 18.2146L20.7427 17.8096ZM18.1804 15.1651H6.6789V16.8351H18.1804V15.1651ZM4.3166 17.0096L4.1166 17.8096L5.73674 18.2146L5.93674 17.4146L4.3166 17.0096ZM6.6789 15.1651C6.30977 15.1651 5.87852 15.1492 5.49967 15.3084L6.14652 16.848C6.12353 16.8577 6.12609 16.849 6.21342 16.8427C6.31125 16.8356 6.44364 16.8351 6.6789 16.8351V15.1651ZM5.93674 17.4146C5.9938 17.1864 6.0264 17.058 6.05699 16.9648C6.0843 16.8817 6.09331 16.8813 6.07836 16.9012L4.74158 15.9003C4.49528 16.2292 4.40613 16.6514 4.3166 17.0096L5.93674 17.4146ZM5.49967 15.3084C5.19884 15.4348 4.93716 15.6391 4.74158 15.9003L6.07836 16.9012C6.09594 16.8777 6.11947 16.8594 6.14652 16.848L5.49967 15.3084ZM20.5427 17.0096C20.4532 16.6514 20.364 16.2292 20.1177 15.9003L18.781 16.9012C18.766 16.8813 18.775 16.8817 18.8023 16.9648C18.8329 17.058 18.8655 17.1864 18.9226 17.4146L20.5427 17.0096ZM18.1804 16.8351C18.4157 16.8351 18.5481 16.8356 18.6459 16.8427C18.7332 16.849 18.7358 16.8577 18.7128 16.848L19.3597 15.3084C18.9808 15.1492 18.5496 15.1651 18.1804 15.1651V16.8351ZM20.1177 15.9003C19.9222 15.6391 19.6605 15.4348 19.3597 15.3084L18.7128 16.848C18.7398 16.8594 18.7634 16.8777 18.781 16.9012L20.1177 15.9003ZM18.3804 20.8351C18.7144 20.8351 19.0198 20.8359 19.2697 20.8138C19.5258 20.7911 19.821 20.7385 20.0998 20.5695L19.2344 19.1412C19.2743 19.1171 19.2754 19.1368 19.1225 19.1503C18.9634 19.1644 18.745 19.1651 18.3804 19.1651V20.8351ZM19.1226 18.2146C19.211 18.5683 19.2632 18.7804 19.2882 18.9381C19.3121 19.0897 19.2927 19.0935 19.3065 19.0489L20.9021 19.542C20.9983 19.2305 20.9778 18.9314 20.9377 18.6775C20.8985 18.4297 20.8237 18.1335 20.7427 17.8096L19.1226 18.2146ZM20.0998 20.5695C20.484 20.3368 20.7694 19.9712 20.9021 19.542L19.3065 19.0489C19.2946 19.0874 19.2689 19.1203 19.2344 19.1412L20.0998 20.5695ZM6.4789 19.1651C6.11432 19.1651 5.89587 19.1644 5.7368 19.1503C5.58395 19.1368 5.58501 19.1171 5.62493 19.1412L4.75956 20.5695C5.03837 20.7385 5.3335 20.7911 5.58962 20.8138C5.83953 20.8359 6.14497 20.8351 6.4789 20.8351V19.1651ZM4.1166 17.8096C4.03561 18.1335 3.96079 18.4297 3.92163 18.6775C3.88149 18.9314 3.861 19.2305 3.95726 19.542L5.55279 19.0489C5.56658 19.0935 5.5472 19.0897 5.57116 18.9381C5.59608 18.7804 5.64832 18.5683 5.73674 18.2146L4.1166 17.8096ZM5.62493 19.1412C5.59039 19.1203 5.56472 19.0874 5.55279 19.0489L3.95726 19.542C4.0899 19.9712 4.37537 20.3368 4.75956 20.5695L5.62493 19.1412ZM5.67687 9.83513H19.1824V8.16513H5.67687V9.83513ZM11.3407 2.61105L5.48732 5.53774L6.23417 7.03144L12.0875 4.10475L11.3407 2.61105ZM4.39835 8.80464L4.57226 9.15244L6.06595 8.40559L5.89205 8.05779L4.39835 8.80464ZM20.2871 9.15244L20.461 8.80464L18.9673 8.05779L18.7934 8.40559L20.2871 9.15244ZM19.372 5.53774L13.5186 2.61105L12.7718 4.10475L18.6252 7.03144L19.372 5.53774ZM20.461 8.80464C20.58 8.5665 20.6924 8.34327 20.7704 8.14903C20.8521 7.94571 20.925 7.70757 20.923 7.43341L19.253 7.44609C19.2528 7.412 19.264 7.41913 19.2209 7.5263C19.1742 7.64254 19.0987 7.795 18.9673 8.05779L20.461 8.80464ZM18.6252 7.03143C18.8879 7.16283 19.0398 7.2395 19.1469 7.30446C19.2457 7.36435 19.241 7.37678 19.2208 7.34935L20.5643 6.35752C20.4015 6.13694 20.2003 5.99017 20.0129 5.87655C19.834 5.76799 19.6101 5.65681 19.372 5.53774L18.6252 7.03143ZM20.923 7.43341C20.92 7.04591 20.7945 6.66929 20.5643 6.35752L19.2208 7.34935C19.2415 7.37738 19.2527 7.41125 19.253 7.44609L20.923 7.43341ZM5.48732 5.53774C5.24918 5.65681 5.02537 5.76799 4.84638 5.87655C4.65902 5.99017 4.45782 6.13694 4.29498 6.35752L5.63855 7.34935C5.61831 7.37678 5.61362 7.36435 5.71238 7.30446C5.8195 7.2395 5.97138 7.16283 6.23417 7.03144L5.48732 5.53774ZM5.89205 8.05779C5.76065 7.795 5.68515 7.64254 5.63843 7.5263C5.59536 7.41913 5.60656 7.412 5.6063 7.44609L3.93635 7.43341C3.93427 7.70758 4.00718 7.94572 4.08888 8.14903C4.16694 8.34327 4.27928 8.5665 4.39835 8.80464L5.89205 8.05779ZM4.29498 6.35752C4.06484 6.66929 3.93929 7.04591 3.93635 7.43341L5.6063 7.44609C5.60657 7.41125 5.61786 7.37738 5.63855 7.34935L4.29498 6.35752ZM19.1824 9.83513C19.2117 9.83513 19.4254 9.84602 19.6289 9.77583L19.0844 8.1971C19.1615 8.1705 19.222 8.16594 19.2364 8.16504C19.2426 8.16466 19.2429 8.16484 19.2317 8.16498C19.2204 8.16512 19.2063 8.16513 19.1824 8.16513V9.83513ZM18.7934 8.40559C18.7827 8.42697 18.7764 8.43957 18.7712 8.44961C18.7661 8.45952 18.7661 8.45914 18.7692 8.45379C18.7764 8.44131 18.8075 8.38929 18.8658 8.3322L20.0343 9.52527C20.1881 9.37464 20.274 9.17857 20.2871 9.15244L18.7934 8.40559ZM19.6289 9.77583C19.781 9.72339 19.9195 9.6378 20.0343 9.52528L18.8658 8.33219C18.9278 8.27153 19.0024 8.22538 19.0844 8.1971L19.6289 9.77583ZM5.67687 8.16513C5.65297 8.16513 5.63888 8.16512 5.62758 8.16498C5.61643 8.16484 5.61677 8.16466 5.62294 8.16504C5.63734 8.16594 5.69779 8.1705 5.77492 8.1971L5.23038 9.77583C5.43389 9.84602 5.64767 9.83513 5.67687 9.83513V8.16513ZM4.57226 9.15244C4.58532 9.17856 4.67118 9.37464 4.82497 9.52527L5.99351 8.3322C6.05179 8.38929 6.0829 8.44131 6.09015 8.45379C6.09325 8.45914 6.09324 8.45952 6.08813 8.44961C6.08295 8.43957 6.07664 8.42697 6.06595 8.40559L4.57226 9.15244ZM5.77492 8.1971C5.85689 8.22538 5.93155 8.27152 5.9935 8.33219L4.82498 9.52528C4.93987 9.63781 5.07834 9.72339 5.23038 9.77583L5.77492 8.1971ZM12.0875 4.10475C12.2264 4.03534 12.3019 3.99787 12.3596 3.97276C12.4093 3.95114 12.4136 3.9533 12.3992 3.95599L12.0913 2.31463C11.8118 2.36707 11.5598 2.50152 11.3407 2.61105L12.0875 4.10475ZM13.5186 2.61105C13.2996 2.50152 13.0475 2.36707 12.768 2.31463L12.4601 3.95599C12.4457 3.9533 12.45 3.95114 12.4997 3.97276C12.5574 3.99787 12.633 4.03534 12.7718 4.10475L13.5186 2.61105ZM12.3992 3.95599C12.4193 3.95222 12.44 3.95222 12.4601 3.95599L12.768 2.31463C12.5444 2.27268 12.3149 2.27268 12.0913 2.31463L12.3992 3.95599ZM8.26466 15.0001V9.00013H6.59466V15.0001H8.26466ZM13.2647 15.0001V10.0001H11.5947V15.0001H13.2647ZM18.2647 15.0001V10.0001H16.5947V15.0001H18.2647Z" fill="#5F6D7E"/>
</svg>
