<svg width="21" height="21" viewBox="0 0 21 21" fill="none" xmlns="http://www.w3.org/2000/svg">
<path d="M3.32739 15.633C4.31633 17.113 5.72193 18.2666 7.36647 18.9478C9.011 19.6289 10.8206 19.8072 12.5664 19.4599C14.3123 19.1126 15.9159 18.2555 17.1746 16.9968C18.4333 15.7381 19.2904 14.1345 19.6377 12.3887C19.985 10.6428 19.8067 8.83323 19.1255 7.18869C18.4443 5.54416 17.2908 4.13855 15.8108 3.14962C14.3307 2.16068 12.5907 1.63284 10.8106 1.63284C8.29457 1.64231 5.87959 2.62407 4.07062 4.37284" stroke="#5F6D7E" stroke-width="1.5" stroke-linecap="round" stroke-linejoin="round"/>
<path d="M7.677 15.434L2.82583 14.2231L1.61499 19.0743" stroke="#5F6D7E" stroke-width="1.5" stroke-linecap="round" stroke-linejoin="round"/>
<path d="M9.81079 6.63284V11.6328L13.8108 13.6328" stroke="#5F6D7E" stroke-width="1.5" stroke-linecap="round" stroke-linejoin="round"/>
</svg>
