<svg width="41" height="40" viewBox="0 0 41 40" fill="none" xmlns="http://www.w3.org/2000/svg">
<rect x="0.429443" width="40" height="40" rx="10" fill="#93B722" fill-opacity="0.1"/>
<path d="M12.3991 26.9697C12.1062 27.2626 12.1062 27.7374 12.3991 28.0303C12.692 28.3232 13.1669 28.3232 13.4598 28.0303L12.3991 26.9697ZM28.4598 13.0303C28.7527 12.7374 28.7527 12.2626 28.4598 11.9697C28.1669 11.6768 27.692 11.6768 27.3991 11.9697L28.4598 13.0303ZM13.4598 11.9697C13.1669 11.6768 12.692 11.6768 12.3991 11.9697C12.1062 12.2626 12.1062 12.7374 12.3991 13.0303L13.4598 11.9697ZM27.3991 28.0303C27.692 28.3232 28.1669 28.3232 28.4598 28.0303C28.7527 27.7374 28.7527 27.2626 28.4598 26.9697L27.3991 28.0303ZM11.3461 16.6667C11.3461 17.0809 11.6819 17.4167 12.0961 17.4167C12.5103 17.4167 12.8461 17.0809 12.8461 16.6667H11.3461ZM17.0961 12.4167C17.5103 12.4167 17.8461 12.0809 17.8461 11.6667C17.8461 11.2524 17.5103 10.9167 17.0961 10.9167V12.4167ZM12.2778 12.5767L11.6095 12.2362L11.6095 12.2362L12.2778 12.5767ZM13.0061 11.8483L13.3466 12.5166L13.3466 12.5166L13.0061 11.8483ZM23.7628 10.9167C23.3486 10.9167 23.0128 11.2524 23.0128 11.6667C23.0128 12.0809 23.3486 12.4167 23.7628 12.4167V10.9167ZM28.0128 16.6667C28.0128 17.0809 28.3486 17.4167 28.7628 17.4167C29.177 17.4167 29.5128 17.0809 29.5128 16.6667H28.0128ZM27.8528 11.8483L28.1932 11.1801V11.1801L27.8528 11.8483ZM28.5811 12.5767L29.2494 12.2362L29.2494 12.2362L28.5811 12.5767ZM29.5128 23.3333C29.5128 22.9191 29.177 22.5833 28.7628 22.5833C28.3486 22.5833 28.0128 22.9191 28.0128 23.3333H29.5128ZM23.7628 27.5833C23.3486 27.5833 23.0128 27.9191 23.0128 28.3333C23.0128 28.7475 23.3486 29.0833 23.7628 29.0833V27.5833ZM28.5811 27.4233L29.2494 27.7638L29.2494 27.7638L28.5811 27.4233ZM27.8528 28.1517L27.5123 27.4834H27.5123L27.8528 28.1517ZM17.0961 29.0833C17.5103 29.0833 17.8461 28.7475 17.8461 28.3333C17.8461 27.9191 17.5103 27.5833 17.0961 27.5833L17.0961 29.0833ZM14.7628 28.3333L14.7628 27.5833H14.7628V28.3333ZM12.8461 23.3333C12.8461 22.9191 12.5103 22.5833 12.0961 22.5833C11.6819 22.5833 11.3461 22.9191 11.3461 23.3333H12.8461ZM13.0061 28.1517L12.6656 28.8199H12.6656L13.0061 28.1517ZM12.2778 27.4233L11.6095 27.7638L11.6095 27.7638L12.2778 27.4233ZM13.4598 28.0303L20.9598 20.5303L19.8991 19.4697L12.3991 26.9697L13.4598 28.0303ZM20.9598 20.5303L28.4598 13.0303L27.3991 11.9697L19.8991 19.4697L20.9598 20.5303ZM12.3991 13.0303L19.8991 20.5303L20.9598 19.4697L13.4598 11.9697L12.3991 13.0303ZM19.8991 20.5303L27.3991 28.0303L28.4598 26.9697L20.9598 19.4697L19.8991 20.5303ZM12.8461 16.6667V14.3333H11.3461V16.6667H12.8461ZM14.7628 12.4167H17.0961V10.9167H14.7628V12.4167ZM12.8461 14.3333C12.8461 13.8542 12.8467 13.54 12.8663 13.2997C12.8852 13.0682 12.918 12.9721 12.946 12.9172L11.6095 12.2362C11.4558 12.5378 11.3978 12.8533 11.3713 13.1776C11.3455 13.4931 11.3461 13.879 11.3461 14.3333H12.8461ZM14.7628 10.9167C14.3084 10.9167 13.9226 10.9161 13.607 10.9419C13.2827 10.9684 12.9672 11.0264 12.6656 11.1801L13.3466 12.5166C13.4015 12.4886 13.4976 12.4558 13.7292 12.4369C13.9695 12.4172 14.2837 12.4167 14.7628 12.4167V10.9167ZM12.946 12.9172C13.0339 12.7447 13.1741 12.6045 13.3466 12.5166L12.6656 11.1801C12.2109 11.4118 11.8412 11.7815 11.6095 12.2362L12.946 12.9172ZM23.7628 12.4167H26.0961V10.9167H23.7628V12.4167ZM28.0128 14.3333V16.6667H29.5128V14.3333H28.0128ZM26.0961 12.4167C26.5752 12.4167 26.8894 12.4172 27.1297 12.4369C27.3612 12.4558 27.4573 12.4886 27.5123 12.5166L28.1932 11.1801C27.8916 11.0264 27.5761 10.9684 27.2518 10.9419C26.9363 10.9161 26.5504 10.9167 26.0961 10.9167V12.4167ZM29.5128 14.3333C29.5128 13.879 29.5134 13.4931 29.4876 13.1776C29.4611 12.8533 29.403 12.5378 29.2494 12.2362L27.9129 12.9172C27.9408 12.9721 27.9736 13.0682 27.9926 13.2997C28.0122 13.54 28.0128 13.8542 28.0128 14.3333H29.5128ZM27.5123 12.5166C27.6847 12.6045 27.825 12.7447 27.9129 12.9172L29.2494 12.2362C29.0177 11.7815 28.648 11.4118 28.1932 11.1801L27.5123 12.5166ZM28.0128 23.3333V25.6667H29.5128V23.3333H28.0128ZM26.0961 27.5833H23.7628V29.0833H26.0961V27.5833ZM28.0128 25.6667C28.0128 26.1457 28.0122 26.46 27.9926 26.7002C27.9736 26.9318 27.9408 27.0279 27.9129 27.0828L29.2494 27.7638C29.403 27.4622 29.4611 27.1467 29.4876 26.8224C29.5134 26.5068 29.5128 26.121 29.5128 25.6667H28.0128ZM26.0961 29.0833C26.5504 29.0833 26.9363 29.0839 27.2518 29.0581C27.5761 29.0316 27.8916 28.9736 28.1932 28.8199L27.5123 27.4834C27.4574 27.5114 27.3612 27.5442 27.1297 27.5631C26.8894 27.5827 26.5752 27.5833 26.0961 27.5833V29.0833ZM27.9129 27.0828C27.825 27.2553 27.6847 27.3955 27.5123 27.4834L28.1932 28.8199C28.648 28.5882 29.0177 28.2185 29.2494 27.7638L27.9129 27.0828ZM17.0961 27.5833L14.7628 27.5833L14.7628 29.0833L17.0961 29.0833L17.0961 27.5833ZM12.8461 25.6667V23.3333H11.3461V25.6667H12.8461ZM14.7628 27.5833C14.2837 27.5833 13.9695 27.5827 13.7292 27.5631C13.4976 27.5442 13.4015 27.5114 13.3466 27.4834L12.6656 28.8199C12.9672 28.9736 13.2827 29.0316 13.607 29.0581C13.9226 29.0839 14.3084 29.0833 14.7628 29.0833V27.5833ZM11.3461 25.6667C11.3461 26.121 11.3455 26.5068 11.3713 26.8224C11.3978 27.1467 11.4558 27.4622 11.6095 27.7638L12.946 27.0828C12.918 27.0279 12.8852 26.9318 12.8663 26.7002C12.8467 26.46 12.8461 26.1457 12.8461 25.6667H11.3461ZM13.3466 27.4834C13.1741 27.3955 13.0339 27.2553 12.946 27.0828L11.6095 27.7638C11.8412 28.2185 12.2109 28.5882 12.6656 28.8199L13.3466 27.4834Z" fill="#056A3A"/>
</svg>
