<svg width="23" height="22" viewBox="0 0 23 22" fill="none" xmlns="http://www.w3.org/2000/svg">
<path d="M8.67951 3.44511C8.67951 2.55495 9.40113 1.83334 10.2913 1.83334H12.5677C13.4579 1.83334 14.1795 2.55496 14.1795 3.44512C14.1795 4.68587 15.5227 5.46133 16.5972 4.84095C17.3681 4.39586 18.3539 4.65999 18.799 5.43091L19.9372 7.40231C20.3823 8.17323 20.1181 9.15899 19.3472 9.60408C18.2727 10.2245 18.2727 11.7754 19.3472 12.3958C20.1181 12.8409 20.3823 13.8267 19.9372 14.5976L18.799 16.569C18.3539 17.3399 17.3681 17.604 16.5972 17.1589C15.5227 16.5385 14.1795 17.3141 14.1795 18.5548C14.1795 19.445 13.4579 20.1667 12.5677 20.1667H10.2913C9.40115 20.1667 8.67951 19.445 8.67951 18.5548C8.67951 17.3141 7.33635 16.5386 6.26182 17.1589C5.49091 17.604 4.50515 17.3399 4.06007 16.569L2.92187 14.5976C2.47678 13.8267 2.74092 12.8409 3.51183 12.3958C4.58636 11.7754 4.58636 10.2245 3.51183 9.60408C2.74092 9.15899 2.47678 8.17323 2.92187 7.40231L4.06007 5.43089C4.50515 4.65998 5.49092 4.39585 6.26183 4.84094C7.33635 5.46131 8.67951 4.68586 8.67951 3.44511Z" stroke="#5F6D7E" stroke-width="1.67"/>
<path d="M15.0962 11C15.0962 13.025 13.4546 14.6667 11.4295 14.6667C9.40447 14.6667 7.76284 13.025 7.76284 11C7.76284 8.97496 9.40447 7.33334 11.4295 7.33334C13.4546 7.33334 15.0962 8.97496 15.0962 11Z" stroke="#5F6D7E" stroke-width="1.67"/>
</svg>
