<svg width="4" height="19" viewBox="0 0 4 19" fill="none" xmlns="http://www.w3.org/2000/svg">
<path d="M0 2.28516C0 3.38973 0.895431 4.28516 2 4.28516C3.10457 4.28516 4 3.38973 4 2.28516C4 1.18059 3.10457 0.285156 2 0.285156C0.895431 0.285156 0 1.18059 0 2.28516Z" fill="#5F6D7E"/>
<path d="M0 9.28516C0 10.3897 0.895431 11.2852 2 11.2852C3.10457 11.2852 4 10.3897 4 9.28516C4 8.18059 3.10457 7.28516 2 7.28516C0.895431 7.28516 0 8.18059 0 9.28516Z" fill="#5F6D7E"/>
<path d="M0 16.2852C0 17.3897 0.895431 18.2852 2 18.2852C3.10457 18.2852 4 17.3897 4 16.2852C4 15.1806 3.10457 14.2852 2 14.2852C0.895431 14.2852 0 15.1806 0 16.2852Z" fill="#5F6D7E"/>
</svg>
