<svg width="25" height="24" viewBox="0 0 25 24" fill="none" xmlns="http://www.w3.org/2000/svg">
<path d="M9.71004 16.252C9.59819 16.6994 9.8702 17.1528 10.3176 17.2646C10.765 17.3765 11.2183 17.1045 11.3302 16.6571L9.71004 16.252ZM13.1484 9.38434C13.2602 8.93695 12.9882 8.4836 12.5408 8.37175C12.0934 8.2599 11.6401 8.53191 11.5282 8.9793L13.1484 9.38434ZM8.38327 10.6813C8.70936 10.3553 8.70936 9.82656 8.38327 9.50047C8.05718 9.17439 7.52849 9.17439 7.2024 9.50047L8.38327 10.6813ZM5.32269 13.0753L5.91313 12.4849L5.32269 13.0753ZM7.2024 16.1359C7.52849 16.462 8.05718 16.462 8.38327 16.1359C8.70936 15.8098 8.70936 15.2811 8.38327 14.955L7.2024 16.1359ZM15.656 9.50047C15.3299 9.17439 14.8012 9.17439 14.4751 9.50047C14.149 9.82656 14.149 10.3553 14.4751 10.6813L15.656 9.50047ZM17.5357 13.0753L16.9453 12.4849L17.5357 13.0753ZM14.4751 14.955C14.149 15.2811 14.149 15.8098 14.4751 16.1359C14.8012 16.462 15.3299 16.462 15.656 16.1359L14.4751 14.955ZM3.91106 20.5046L4.29014 19.7606H4.29014L3.91106 20.5046ZM1.92462 18.5181L2.66861 18.1391H2.66861L1.92462 18.5181ZM20.9338 18.5181L20.1898 18.1391H20.1898L20.9338 18.5181ZM18.9473 20.5046L18.5683 19.7606V19.7606L18.9473 20.5046ZM18.9473 1.49542L18.5683 2.23942V2.23942L18.9473 1.49542ZM21.3856 5.54545L22.219 5.49457L21.3856 5.54545ZM20.9338 3.48186L20.1898 3.86094V3.86094L20.9338 3.48186ZM3.91106 1.49542L4.29014 2.23942H4.29014L3.91106 1.49542ZM1.92462 3.48186L2.66861 3.86094V3.86094L1.92462 3.48186ZM11.3302 16.6571L13.1484 9.38434L11.5282 8.9793L9.71004 16.252L11.3302 16.6571ZM7.2024 9.50047L4.73226 11.9706L5.91313 13.1515L8.38327 10.6813L7.2024 9.50047ZM4.73226 13.6657L7.2024 16.1359L8.38327 14.955L5.91313 12.4849L4.73226 13.6657ZM4.73226 11.9706C4.26416 12.4387 4.26416 13.1976 4.73226 13.6657L5.91313 12.4849C6.09721 12.669 6.09721 12.9674 5.91313 13.1515L4.73226 11.9706ZM14.4751 10.6813L16.9453 13.1515L18.1261 11.9706L15.656 9.50047L14.4751 10.6813ZM16.9453 12.4849L14.4751 14.955L15.656 16.1359L18.1261 13.6657L16.9453 12.4849ZM16.9453 13.1515C16.7612 12.9674 16.7612 12.669 16.9453 12.4849L18.1261 13.6657C18.5942 13.1976 18.5942 12.4387 18.1261 11.9706L16.9453 13.1515ZM8.70193 1.835H14.1565V0.165H8.70193V1.835ZM20.5942 8.27273V13.7273H22.2642V8.27273H20.5942ZM14.1565 20.165H8.70193V21.835H14.1565V20.165ZM2.2642 13.7273V8.27273H0.594199V13.7273H2.2642ZM8.70193 20.165C7.4153 20.165 6.50055 20.1644 5.78448 20.1058C5.07815 20.0481 4.63898 19.9383 4.29014 19.7606L3.53198 21.2486C4.15547 21.5663 4.83888 21.7042 5.64849 21.7703C6.44834 21.8356 7.44286 21.835 8.70193 21.835V20.165ZM0.594199 13.7273C0.594199 14.9863 0.59355 15.9809 0.6589 16.7807C0.725048 17.5903 0.862948 18.2737 1.18063 18.8972L2.66861 18.1391C2.49088 17.7902 2.38106 17.351 2.32335 16.6447C2.26485 15.9286 2.2642 15.0139 2.2642 13.7273H0.594199ZM4.29014 19.7606C3.59198 19.4049 3.02435 18.8372 2.66861 18.1391L1.18063 18.8972C1.69648 19.9096 2.51958 20.7327 3.53198 21.2486L4.29014 19.7606ZM20.5942 13.7273C20.5942 15.0139 20.5935 15.9286 20.535 16.6447C20.4773 17.351 20.3675 17.7902 20.1898 18.1391L21.6778 18.8972C21.9955 18.2737 22.1334 17.5903 22.1995 16.7807C22.2648 15.9809 22.2642 14.9863 22.2642 13.7273H20.5942ZM14.1565 21.835C15.4155 21.835 16.4101 21.8356 17.2099 21.7703C18.0195 21.7042 18.7029 21.5663 19.3264 21.2486L18.5683 19.7606C18.2194 19.9383 17.7802 20.0481 17.0739 20.1058C16.3578 20.1644 15.4431 20.165 14.1565 20.165V21.835ZM20.1898 18.1391C19.8341 18.8372 19.2664 19.4049 18.5683 19.7606L19.3264 21.2486C20.3388 20.7327 21.1619 19.9096 21.6778 18.8972L20.1898 18.1391ZM14.1565 1.835C15.4431 1.835 16.3578 1.83565 17.0739 1.89415C17.7802 1.95186 18.2194 2.06168 18.5683 2.23942L19.3264 0.751434C18.7029 0.433749 18.0195 0.295848 17.2099 0.229701C16.4101 0.164351 15.4155 0.165 14.1565 0.165V1.835ZM22.2642 8.27273C22.2642 7.14999 22.2646 6.24007 22.219 5.49457L20.5521 5.59634C20.5938 6.27939 20.5942 7.13058 20.5942 8.27273H22.2642ZM22.219 5.49457C22.1621 4.56128 22.0299 3.79395 21.6778 3.10278L20.1898 3.86094C20.3877 4.24935 20.5003 4.74685 20.5521 5.59634L22.219 5.49457ZM18.5683 2.23942C19.2664 2.59515 19.8341 3.16278 20.1898 3.86094L21.6778 3.10278C21.1619 2.09038 20.3388 1.26728 19.3264 0.751434L18.5683 2.23942ZM8.70193 0.165C7.44286 0.165 6.44834 0.164351 5.64849 0.229701C4.83888 0.295848 4.15547 0.433749 3.53198 0.751434L4.29014 2.23942C4.63898 2.06168 5.07815 1.95186 5.78448 1.89415C6.50055 1.83565 7.4153 1.835 8.70193 1.835V0.165ZM2.2642 8.27273C2.2642 7.13058 2.26455 6.27939 2.30626 5.59634L0.639363 5.49457C0.593845 6.24007 0.594199 7.14999 0.594199 8.27273H2.2642ZM2.30626 5.59634C2.35813 4.74685 2.47071 4.24935 2.66861 3.86094L1.18063 3.10278C0.828463 3.79395 0.696348 4.56128 0.639363 5.49457L2.30626 5.59634ZM3.53198 0.751434C2.51958 1.26728 1.69648 2.09038 1.18063 3.10278L2.66861 3.86094C3.02435 3.16278 3.59198 2.59515 4.29014 2.23942L3.53198 0.751434ZM1.47281 6.38045H21.3856V4.71045H1.47281V6.38045Z" fill="#5F6D7E"/>
</svg>
