<svg width="25" height="24" viewBox="0 0 25 24" fill="none" xmlns="http://www.w3.org/2000/svg">
<path d="M8.4292 8H6.6292C5.50909 8 4.94904 8 4.52122 8.21799C4.14489 8.40973 3.83893 8.71569 3.64719 9.09202C3.4292 9.51984 3.4292 10.0799 3.4292 11.2V17.8C3.4292 18.9201 3.4292 19.4802 3.64719 19.908C3.83893 20.2843 4.14489 20.5903 4.52122 20.782C4.94904 21 5.50909 21 6.6292 21H8.4292M8.4292 8H16.4292M8.4292 8V7C8.4292 4.79086 10.2201 3 12.4292 3C14.6383 3 16.4292 4.79086 16.4292 7V8M8.4292 8V21M16.4292 8H18.2292C19.3493 8 19.9094 8 20.3372 8.21799C20.7135 8.40973 21.0195 8.71569 21.2112 9.09202C21.4292 9.51984 21.4292 10.0799 21.4292 11.2V17.8C21.4292 18.9201 21.4292 19.4802 21.2112 19.908C21.0195 20.2843 20.7135 20.5903 20.3372 20.782C19.9094 21 19.3493 21 18.2292 21H16.4292M16.4292 8V21M8.4292 21H16.4292" stroke="#5F6D7E" stroke-width="1.67" stroke-linecap="round"/>
</svg>
